<?xml version="1.0" encoding="utf-8"?>
<!-- Generator: Adobe Illustrator 22.0.0, SVG Export Plug-In . SVG Version: 6.00 Build 0)  -->
<svg version="1.1" id="Layer_1" xmlns="http://www.w3.org/2000/svg" xmlns:xlink="http://www.w3.org/1999/xlink" x="0px" y="0px"
	 viewBox="0 0 500 500" style="enable-background:new 0 0 500 500;" xml:space="preserve">
<style type="text/css">
	.st0{fill:#FFFFFF;stroke:#3A8DDE;stroke-width:2;stroke-linecap:round;stroke-linejoin:round;stroke-miterlimit:10;}
	.st1{fill:none;stroke:#3A8DDE;stroke-width:2;stroke-linecap:round;stroke-linejoin:round;stroke-miterlimit:10;}
	.st2{fill:none;stroke:#3A8DDE;stroke-width:2;stroke-linecap:round;stroke-miterlimit:10;}
	.st3{fill:none;stroke:#3A8DDE;stroke-width:2;stroke-linecap:round;stroke-miterlimit:10;stroke-dasharray:4.9022,9.8043;}
	.st4{fill:none;stroke:#3A8DDE;stroke-width:2;stroke-linecap:round;stroke-miterlimit:10;stroke-dasharray:5.097,10.1941;}
	.st5{fill:none;stroke:#3A8DDE;stroke-width:2;stroke-linecap:round;stroke-miterlimit:10;stroke-dasharray:4.9275,9.855;}
</style>
<g>
	<path class="st0" d="M301.7,321.6c0,2.2-0.9,4.2-2.3,5.7c-1.5,1.5-3.5,2.3-5.7,2.3h-25.2c4.4,0,8,3.6,8,8c0,2.2-0.9,4.2-2.3,5.7
		s-3.4,2.3-5.7,2.3h-30.7c-4.4,0-8-3.6-8-8c0-2.2,0.9-4.2,2.3-5.7c1.4-1.5,3.4-2.3,5.7-2.3h-12c-4.4,0-8-3.6-8-8
		c0-2.2,0.9-4.2,2.3-5.7c1.5-1.5,3.5-2.3,5.7-2.3h27.6c-4.4,0-8-3.6-8-8c0-2.2,0.9-4.2,2.3-5.7c1.4-1.4,3.4-2.3,5.7-2.3h21.7
		c4.4,0,8,3.6,8,8c0,2.2-0.9,4.2-2.3,5.7c-1.5,1.4-3.5,2.3-5.7,2.3h18.7C298.1,313.5,301.7,317.1,301.7,321.6z"/>
	<line class="st1" x1="225.2" y1="324.4" x2="240.7" y2="324.4"/>
	<line class="st1" x1="262.5" y1="341" x2="268.4" y2="341"/>
	<line class="st1" x1="236.1" y1="320.9" x2="242" y2="320.9"/>
	<line class="st1" x1="267.9" y1="301.9" x2="273.8" y2="301.9"/>
</g>
<g>
	<line class="st1" x1="442.8" y1="375.3" x2="68" y2="375.3"/>
	<g>
		<path class="st1" d="M190.8,374.2c0-38.5-16.2-72-39.9-88.5"/>
		<path class="st1" d="M94.4,291.2c12.6,23.5,20,52.4,20,83.7"/>
		<g>
			<path class="st0" d="M109.6,293.1l13.8-10.9c-4.1-5.3-11.8-6.2-17-2l-4.3,3.4l2.1-17.4c-6.6-0.8-12.7,4-13.5,10.6L89,290.7
				L75.2,289c-6.6-0.8-12.7,4-13.5,10.6l0,0l17.4,2.1l-4.3,3.4c-5.3,4.1-6.2,11.8-2,17l13.8-10.9l-0.6,5.4
				c-0.8,6.6,4,12.7,10.6,13.5l3.1-25.9l25.9,3.1c0.8-6.6-4-12.7-10.6-13.5L109.6,293.1z"/>
			<line class="st1" x1="77.7" y1="293" x2="83.3" y2="293.7"/>
			<line class="st1" x1="95.3" y1="280.3" x2="94.9" y2="283.5"/>
			<line class="st1" x1="94.9" y1="286.3" x2="94.6" y2="288.6"/>
		</g>
		<g>
			<path class="st0" d="M161.9,271.9l10.2-19.3c-7.4-3.9-16.5-1.1-20.3,6.3l-3.2,6l-6.5-20.8c-7.9,2.5-12.4,10.9-9.9,18.8l5.2,16.6
				l-16.6,5.2c-7.9,2.5-12.4,10.9-9.9,18.8l0,0l20.8-6.5l-3.2,6c-3.9,7.4-1.1,16.5,6.3,20.3L145,304l2,6.5
				c2.5,7.9,10.9,12.4,18.8,9.9l-9.6-31l31-9.6c-2.5-7.9-10.9-12.4-18.8-9.9L161.9,271.9z"/>
			<line class="st1" x1="125.6" y1="288" x2="132.3" y2="285.9"/>
			<line class="st1" x1="139.2" y1="264.6" x2="140.4" y2="268.5"/>
			<line class="st1" x1="141.7" y1="271.6" x2="142.6" y2="274.4"/>
		</g>
		<path class="st1" d="M293.7,233.9c103.4,0,141.3,110.8,141.3,141.3"/>
		<g>
			<path class="st0" d="M311.1,216.3l3.9-21.5c-8.2-1.5-16,4-17.5,12.1l-1.2,6.7l-12.5-17.9c-6.8,4.7-8.5,14.1-3.8,20.9l9.9,14.3
				l-14.3,9.9c-6.8,4.7-8.5,14.1-3.8,20.9l0,0l17.9-12.5l-1.2,6.7c-1.5,8.2,4,16,12.1,17.5l3.9-21.5l3.9,5.6
				c4.7,6.8,14.1,8.5,20.9,3.8L311,234.7l26.7-18.5c-4.7-6.8-14.1-8.5-20.9-3.8L311.1,216.3z"/>
			<line class="st1" x1="281.4" y1="242.6" x2="287.1" y2="238.6"/>
			<line class="st1" x1="287.3" y1="216.2" x2="289.6" y2="219.5"/>
			<line class="st1" x1="291.8" y1="222.1" x2="293.5" y2="224.5"/>
		</g>
	</g>
</g>
<g>
	<g>
		<line class="st2" x1="424" y1="221.9" x2="422.2" y2="223.6"/>
		<line class="st3" x1="415.3" y1="230.6" x2="221.2" y2="424.7"/>
		<line class="st2" x1="217.7" y1="428.1" x2="215.9" y2="429.9"/>
	</g>
</g>
<g>
	<g>
		<line class="st2" x1="438.9" y1="161.9" x2="437.2" y2="163.7"/>
		<line class="st4" x1="429.9" y1="170.9" x2="293" y2="307.8"/>
		<line class="st2" x1="289.4" y1="311.4" x2="287.6" y2="313.2"/>
	</g>
</g>
<g>
	<g>
		<line class="st2" x1="329.7" y1="143" x2="327.9" y2="144.8"/>
		<line class="st5" x1="320.9" y1="151.7" x2="157.2" y2="315.5"/>
		<line class="st2" x1="153.7" y1="319" x2="151.9" y2="320.7"/>
	</g>
</g>
</svg>
