<?xml version="1.0" encoding="utf-8"?>
<!-- Generator: Adobe Illustrator 22.0.0, SVG Export Plug-In . SVG Version: 6.00 Build 0)  -->
<svg version="1.1" id="Layer_1" xmlns="http://www.w3.org/2000/svg" xmlns:xlink="http://www.w3.org/1999/xlink" x="0px" y="0px"
	 viewBox="0 0 500 500" style="enable-background:new 0 0 500 500;" xml:space="preserve">
<style type="text/css">
	.st0{fill:none;stroke:#3A8DDE;stroke-width:2;stroke-linecap:round;stroke-linejoin:round;stroke-miterlimit:10;}
	.st1{fill:#FFFFFF;stroke:#3A8DDE;stroke-width:2;stroke-linecap:round;stroke-linejoin:round;stroke-miterlimit:10;}
</style>
<g>
	<line class="st0" x1="90.4" y1="381.5" x2="418.7" y2="381.5"/>
	<path class="st0" d="M87.9,285.1v-3c0-10.9,8.9-19.8,19.8-19.8s19.8,8.9,19.8,19.8v99.4"/>
	<path class="st1" d="M73.7,301.7c0,10.5,5.7,19.7,14.2,24.6c8.5-4.9,14.2-14.1,14.2-24.6s-5.7-19.8-14.2-24.7
		C79.4,281.9,73.7,291.1,73.7,301.7z"/>
	<line class="st0" x1="87.9" y1="277" x2="87.9" y2="326.3"/>
	<g>
		<path class="st0" d="M167.2,216.2v-3c0-10.9-8.9-19.8-19.8-19.8c-10.9,0-19.8,8.9-19.8,19.8v165"/>
		<path class="st1" d="M181.5,241.7c0,10.5-5.7,19.7-14.2,24.6c-8.5-4.9-14.2-14.1-14.2-24.6s5.7-19.8,14.2-24.7
			C175.8,221.9,181.5,231.1,181.5,241.7z"/>
		<path class="st0" d="M87.9,239.2v-3c0-10.9,8.9-19.8,19.8-19.8s19.8,8.9,19.8,19.8v99.4"/>
		<path class="st1" d="M73.7,255.8c0,10.5,5.7,19.7,14.2,24.6c8.5-4.9,14.2-14.1,14.2-24.6s-5.7-19.8-14.2-24.7
			C79.4,236,73.7,245.2,73.7,255.8z"/>
		<line class="st0" x1="87.9" y1="231.1" x2="87.9" y2="280.4"/>
		<path class="st0" d="M87.9,193.4v-3c0-10.9,8.9-19.8,19.8-19.8s19.8,8.9,19.8,19.8v99.4"/>
		<path class="st1" d="M73.7,210c0,10.5,5.7,19.7,14.2,24.6c8.5-4.9,14.2-14.1,14.2-24.6s-5.7-19.8-14.2-24.7
			C79.4,190.2,73.7,199.4,73.7,210z"/>
		<line class="st0" x1="87.9" y1="185.3" x2="87.9" y2="234.6"/>
		<path class="st0" d="M87.9,144.9v-3c0-10.9,8.9-19.8,19.8-19.8s19.8,8.9,19.8,19.8v99.4"/>
		<path class="st1" d="M73.7,161.4c0,10.5,5.7,19.7,14.2,24.6c8.5-4.9,14.2-14.1,14.2-24.6s-5.7-19.8-14.2-24.7
			C79.4,141.7,73.7,150.9,73.7,161.4z"/>
		<line class="st0" x1="87.9" y1="136.7" x2="87.9" y2="186.1"/>
		<line class="st0" x1="167.2" y1="216.2" x2="167.2" y2="266.3"/>
		<path class="st0" d="M167.2,160.6v-3c0-10.9-8.9-19.8-19.8-19.8c-10.9,0-19.8,8.9-19.8,19.8v165"/>
		<path class="st1" d="M181.5,186c0,10.5-5.7,19.7-14.2,24.6c-8.5-4.9-14.2-14.1-14.2-24.6s5.7-19.8,14.2-24.7
			C175.8,166.2,181.5,175.5,181.5,186z"/>
		<line class="st0" x1="167.2" y1="160.6" x2="167.2" y2="210.7"/>
		<path class="st0" d="M167.2,112.1v-3c0-10.9-8.9-19.8-19.8-19.8c-10.9,0-19.8,8.9-19.8,19.8v165"/>
		<path class="st1" d="M181.5,137.5c0,10.5-5.7,19.7-14.2,24.6c-8.5-4.9-14.2-14.1-14.2-24.6s5.7-19.8,14.2-24.7
			C175.8,117.7,181.5,126.9,181.5,137.5z"/>
		<line class="st0" x1="167.2" y1="112.1" x2="167.2" y2="162.1"/>
	</g>
	<g>
		<path class="st0" d="M343.9,183v-3c0-10.9-8.9-19.8-19.8-19.8s-19.8,8.9-19.8,19.8v202"/>
		<path class="st1" d="M358.2,208.4c0,10.5-5.7,19.7-14.2,24.6c-8.5-4.9-14.2-14.1-14.2-24.6s5.7-19.8,14.2-24.7
			C352.4,188.6,358.2,197.8,358.2,208.4z"/>
		<path class="st0" d="M264.6,205.9v-3c0-10.9,8.9-19.8,19.8-19.8s19.8,8.9,19.8,19.8v99.4"/>
		<path class="st1" d="M250.4,222.5c0,10.5,5.7,19.7,14.2,24.6c8.5-4.9,14.2-14.1,14.2-24.6s-5.7-19.8-14.2-24.7
			C256.1,202.7,250.4,211.9,250.4,222.5z"/>
		<line class="st0" x1="264.6" y1="197.8" x2="264.6" y2="247.1"/>
		<path class="st0" d="M264.6,160.2v-3c0-10.9,8.9-19.8,19.8-19.8s19.8,8.9,19.8,19.8v99.4"/>
		<path class="st1" d="M250.4,176.7c0,10.5,5.7,19.7,14.2,24.6c8.5-4.9,14.2-14.1,14.2-24.6s-5.7-19.8-14.2-24.7
			C256.1,157,250.4,166.2,250.4,176.7z"/>
		<line class="st0" x1="264.6" y1="152" x2="264.6" y2="201.4"/>
		<line class="st0" x1="343.9" y1="183" x2="343.9" y2="233"/>
		<path class="st0" d="M343.9,127.3v-3c0-10.9-8.9-19.8-19.8-19.8s-19.8,8.9-19.8,19.8v165"/>
		<path class="st1" d="M358.2,152.8c0,10.5-5.7,19.7-14.2,24.6c-8.5-4.9-14.2-14.1-14.2-24.6s5.7-19.8,14.2-24.7
			C352.4,133,358.2,142.2,358.2,152.8z"/>
		<line class="st0" x1="343.9" y1="127.3" x2="343.9" y2="177.4"/>
	</g>
	<g>
		<path class="st0" d="M153.9,316.4v-3c0-10.9,8.9-19.8,19.8-19.8s19.8,8.9,19.8,19.8"/>
		<path class="st1" d="M139.7,332.9c0,10.5,5.7,19.7,14.2,24.6c8.5-4.9,14.2-14.1,14.2-24.6s-5.7-19.8-14.2-24.7
			C145.4,313.1,139.7,322.4,139.7,332.9z"/>
		<line class="st0" x1="153.9" y1="308.2" x2="153.9" y2="357.6"/>
		<path class="st0" d="M233.2,283.5v-3c0-10.9-8.9-19.8-19.8-19.8c-10.9,0-19.8,8.9-19.8,19.8v101"/>
		<path class="st1" d="M247.5,309c0,10.5-5.7,19.7-14.2,24.6c-8.5-4.9-14.2-14.1-14.2-24.6s5.7-19.8,14.2-24.7
			C241.8,289.2,247.5,298.4,247.5,309z"/>
		<line class="st0" x1="233.2" y1="283.5" x2="233.2" y2="333.6"/>
	</g>
	<g>
		<path class="st1" d="M427.3,147.3c13.9,54.6-15.8,111.9-69.9,131.2s-113.4-6.1-137.2-57.2c0.8,3.3,1.8,6.6,3,9.9
			c20.5,57.5,83.7,87.4,141.2,66.9s87.4-83.7,66.9-141.2C430.1,153.6,428.8,150.4,427.3,147.3z"/>
		<path class="st1" d="M407,272.3c-0.9,2-2.4,3.7-4.3,5.1l1,3.7l20.1,75.7c1.8,6.9-2,14.1-8.7,16.5l-42.3,15.1
			c-6.7,2.4-14.2-0.7-17.1-7.3l-32.4-71.2l-1.6-3.5c-5.7,0.4-11.2-2.9-13.2-8.5c-1.2-3.3-0.9-6.9,0.5-9.9s3.9-5.4,7.3-6.7l74.1-26.5
			c5.7-2,12.4-0.3,15.8,4.9C408.7,263.8,408.8,268.5,407,272.3z"/>
		<g>
			<path class="st1" d="M402.5,277.7l7.9,29.6c-7.4,1.5-14.9-2.7-17.4-9.9c-2.9-8,1.3-16.8,9.3-19.6L402.5,277.7z"/>
			<path class="st1" d="M341.8,315.7c2.6,7.2-0.6,15.1-7.2,18.6L322,306.5l0.2-0.1C330.2,303.5,339,307.7,341.8,315.7z"/>
		</g>
		<path class="st1" d="M391.8,332.3l-26.9,9.6c-1.7,0.6-2.6,2.4-2,4.1l14.5,40.6l33-11.8l-14.5-40.6
			C395.3,332.6,393.4,331.7,391.8,332.3z"/>
		<line class="st0" x1="384.1" y1="353.5" x2="372.5" y2="320.8"/>
		<line class="st0" x1="393.9" y1="380.8" x2="384.1" y2="353.5"/>
		<line class="st0" x1="353.6" y1="268" x2="360.9" y2="288.5"/>
		<line class="st0" x1="400.6" y1="347.6" x2="367.7" y2="359.4"/>
	</g>
</g>
</svg>
