<?xml version="1.0" encoding="utf-8"?>
<!-- Generator: Adobe Illustrator 22.0.0, SVG Export Plug-In . SVG Version: 6.00 Build 0)  -->
<svg version="1.1" id="Layer_1" xmlns="http://www.w3.org/2000/svg" xmlns:xlink="http://www.w3.org/1999/xlink" x="0px" y="0px"
	 viewBox="0 0 500 500" style="enable-background:new 0 0 500 500;" xml:space="preserve">
<style type="text/css">
	.st0{fill:#FFFFFF;stroke:#3A8DDE;stroke-width:2;stroke-linecap:round;stroke-linejoin:round;stroke-miterlimit:10;}
	.st1{fill:none;stroke:#3A8DDE;stroke-width:2;stroke-linecap:round;stroke-linejoin:round;stroke-miterlimit:10;}
</style>
<g>
	<g>
		<polygon class="st0" points="73.1,341.9 93.8,341.9 101.1,363 93.8,374.8 73.1,374.8 69.9,356.3 		"/>
		<path class="st0" d="M341.2,135v239.9H149.3v-38l4.4,1.1l2.3-6l0.6-1.7l8.8-23.2c0,0-8.4-4.6-16.1-8.5v-77.4l6.7-4.5l3.8-2.6
			l0.5-2.5l0,0l5-24.4l-16.1-7.6V135H341.2z"/>
		<rect x="137.3" y="123" class="st0" width="215.9" height="12"/>
		<rect x="173.3" y="158.9" class="st1" width="24" height="24"/>
		<polygon class="st1" points="221.2,182.9 197.2,182.9 204.4,162.8 221.2,158.9 		"/>
		<rect x="221.2" y="158.9" class="st1" width="24" height="24"/>
		<rect x="245.2" y="158.9" class="st1" width="24" height="24"/>
		<rect x="269.2" y="158.9" class="st1" width="24" height="24"/>
		<rect x="293.2" y="158.9" class="st1" width="24" height="24"/>
		<rect x="173.3" y="196.2" class="st1" width="24" height="24"/>
		<rect x="197.2" y="196.2" class="st1" width="24" height="24"/>
		<rect x="221.2" y="196.2" class="st1" width="24" height="24"/>
		<rect x="245.2" y="196.2" class="st1" width="24" height="24"/>
		<rect x="269.2" y="196.2" class="st1" width="24" height="24"/>
		<rect x="293.2" y="196.2" class="st1" width="24" height="24"/>
		<rect x="173.3" y="233.4" class="st1" width="24" height="24"/>
		<rect x="197.2" y="233.4" class="st1" width="24" height="24"/>
		<rect x="221.2" y="233.4" class="st1" width="24" height="24"/>
		<rect x="245.2" y="233.4" class="st1" width="24" height="24"/>
		<rect x="269.2" y="233.4" class="st1" width="24" height="24"/>
		<polygon class="st1" points="317.2,257.4 293.2,257.4 293.2,233.4 313.7,237.4 		"/>
		<rect x="173.3" y="270.6" class="st1" width="24" height="24"/>
		<rect x="197.2" y="270.6" class="st1" width="24" height="24"/>
		<rect x="221.2" y="270.6" class="st1" width="24" height="24"/>
		<rect x="245.2" y="270.6" class="st1" width="24" height="24"/>
		<rect x="269.2" y="270.6" class="st1" width="24" height="24"/>
		<rect x="293.2" y="270.6" class="st1" width="24" height="24"/>
		<polygon class="st1" points="305.2,374.8 185.3,374.8 187.1,363.9 305.2,361.2 		"/>
		<polygon class="st1" points="286,361.7 203.6,363.5 204.4,347.6 286,347.6 		"/>
		<polygon class="st1" points="264,347.6 226.5,347.6 228.1,317.1 264,314.4 		"/>
		<polygon class="st1" points="264,347.6 245.2,347.6 245.2,315.8 264,314.4 		"/>
		<polygon class="st1" points="308.1,319.3 303.4,321.8 308.1,325.4 317.2,323.2 313.4,317.1 		"/>
		<polygon class="st1" points="312.6,334.9 310.3,338.7 312.6,344.2 317.2,340.8 315.3,331.6 		"/>
		<polygon class="st1" points="327.8,328.7 325,331 326.4,337.7 331.7,333.2 		"/>
		<polygon class="st0" points="142.5,337.7 132.6,374.8 108.1,374.8 110.5,347.6 		"/>
		<path class="st0" d="M103.1,349.1c0.1,0,15-3.9,15-3.9l0.9-8.4l-10.4-7.8l-8.4,4.1L96.7,350L103.1,349.1z"/>
		<polyline class="st1" points="187.9,270.6 183.2,277.9 191,280.7 186.5,286.8 		"/>
		<polyline class="st1" points="183.2,233.4 180.9,243.2 189.7,245.4 185.3,251 		"/>
		<line class="st1" x1="213" y1="196.2" x2="209.2" y2="206.2"/>
		<polyline class="st1" points="183.2,197.8 180.9,203.7 183.2,208.2 180.9,214 		"/>
		<polyline class="st1" points="286,161.2 281.2,168.3 286,170.9 283.6,177.4 		"/>
		<polygon class="st1" points="230.9,169.3 230.9,174.5 235.9,177.4 238.8,170.9 234.9,167.4 		"/>
		<polyline class="st1" points="341.2,211.2 331.7,220.2 334.2,238.2 330,242.2 325,253.2 		"/>
		<polyline class="st1" points="261.7,123 257.2,127 269.2,128.9 		"/>
		<polyline class="st1" points="238.8,134.9 238.8,140.8 238.8,148.3 233.2,148.3 230.9,151.6 		"/>
		<line class="st1" x1="250.9" y1="148.3" x2="238.8" y2="140.8"/>
		<polyline class="st1" points="257.2,321.2 252.8,328.7 257.2,334.4 257.2,344.2 		"/>
		<polyline class="st0" points="371.5,345.2 369.9,341.9 340.3,341.9 335.7,356.3 340.3,374.8 369.9,374.8 370.6,374 		"/>
		<polygon class="st0" points="368.5,345.7 359.8,356.3 370.6,374.8 411.2,374.8 416.4,356.3 388.1,341.9 		"/>
	</g>
	<line class="st1" x1="474.2" y1="374.8" x2="51.9" y2="374.8"/>
</g>
</svg>
