<?xml version="1.0" encoding="utf-8"?>
<!-- Generator: Adobe Illustrator 22.0.0, SVG Export Plug-In . SVG Version: 6.00 Build 0)  -->
<svg version="1.1" id="Layer_1" xmlns="http://www.w3.org/2000/svg" xmlns:xlink="http://www.w3.org/1999/xlink" x="0px" y="0px"
	 viewBox="0 0 500 500" style="enable-background:new 0 0 500 500;" xml:space="preserve">
<style type="text/css">
	.st0{fill:none;stroke:#3A8DDE;stroke-width:2;stroke-linecap:round;stroke-miterlimit:10;}
	.st1{fill:none;stroke:#3A8DDE;stroke-width:2;stroke-linecap:round;stroke-miterlimit:10;stroke-dasharray:4.8983,9.7965;}
	.st2{fill:none;stroke:#3A8DDE;stroke-width:2;stroke-linecap:round;stroke-miterlimit:10;stroke-dasharray:5.4059,10.8119;}
	.st3{fill:none;stroke:#3A8DDE;stroke-width:2;stroke-linecap:round;stroke-miterlimit:10;stroke-dasharray:4.9275,9.855;}
	.st4{fill:none;stroke:#3A8DDE;stroke-width:2;stroke-linecap:round;stroke-miterlimit:10;stroke-dasharray:5.267,10.5339;}
	.st5{fill:none;stroke:#3A8DDE;stroke-width:2;stroke-linecap:round;stroke-miterlimit:10;stroke-dasharray:4.9901,9.9802;}
	.st6{fill:none;stroke:#3A8DDE;stroke-width:2;stroke-linecap:round;stroke-linejoin:round;stroke-miterlimit:10;}
</style>
<g>
	<g>
		<line class="st0" x1="410.6" y1="123.7" x2="408.9" y2="125.4"/>
		<line class="st1" x1="401.9" y1="132.3" x2="353.4" y2="180.8"/>
		<line class="st0" x1="350" y1="184.3" x2="348.2" y2="186.1"/>
	</g>
</g>
<g>
	<g>
		<line class="st0" x1="152.2" y1="313.4" x2="150.4" y2="315.1"/>
		<line class="st2" x1="142.8" y1="322.8" x2="100.7" y2="364.8"/>
		<line class="st0" x1="96.9" y1="368.7" x2="95.2" y2="370.4"/>
	</g>
</g>
<g>
	<g>
		<line class="st0" x1="264.5" y1="124.6" x2="262.7" y2="126.3"/>
		<line class="st3" x1="255.8" y1="133.3" x2="92" y2="297.1"/>
		<line class="st0" x1="88.5" y1="300.5" x2="86.7" y2="302.3"/>
	</g>
</g>
<g>
	<g>
		<line class="st0" x1="460.6" y1="252.7" x2="458.9" y2="254.5"/>
		<line class="st4" x1="451.4" y1="261.9" x2="388.1" y2="325.3"/>
		<line class="st0" x1="384.4" y1="329" x2="382.6" y2="330.7"/>
	</g>
</g>
<g>
	<g>
		<line class="st0" x1="406.2" y1="214.8" x2="404.4" y2="216.6"/>
		<line class="st5" x1="397.3" y1="223.7" x2="390.3" y2="230.7"/>
		<line class="st0" x1="386.8" y1="234.2" x2="385" y2="236"/>
	</g>
</g>
<g>
	<g>
		<line class="st0" x1="122.6" y1="182.9" x2="120.8" y2="184.6"/>
		<line class="st5" x1="113.8" y1="191.7" x2="106.7" y2="198.8"/>
		<line class="st0" x1="103.2" y1="202.3" x2="101.4" y2="204"/>
	</g>
</g>
<g>
	<rect x="139.5" y="353" class="st6" width="268.4" height="19.5"/>
	<rect x="180.9" y="282.4" class="st6" width="185.6" height="70.6"/>
	<rect x="254.4" y="313.4" class="st6" width="38.4" height="39.5"/>
	<path class="st6" d="M371.1,282.4H176.2c-1.6,0-2.7-1.3-2.4-2.8c6-27.5,52.6-79.2,80-98.8c11.9-8.5,27.8-8.5,39.6,0
		c27.4,19.6,74,71.3,80,98.8C373.8,281.2,372.6,282.4,371.1,282.4z"/>
	<line class="st6" x1="196.5" y1="268.7" x2="224.3" y2="268.7"/>
	<line class="st6" x1="228.1" y1="252" x2="255.9" y2="252"/>
	<line class="st6" x1="316.7" y1="259.2" x2="344.5" y2="259.2"/>
	<line class="st6" x1="292.3" y1="214.2" x2="320.1" y2="214.2"/>
	<line class="st6" x1="230.2" y1="219.7" x2="244.1" y2="219.7"/>
	<line class="st6" x1="296.3" y1="203.7" x2="296.3" y2="226"/>
	<line class="st6" x1="239.3" y1="208" x2="239.3" y2="231.3"/>
	<line class="st6" x1="322.5" y1="245.8" x2="322.5" y2="265.4"/>
	<line class="st6" x1="284" y1="245.8" x2="284" y2="250.5"/>
	<line class="st6" x1="309.4" y1="208.6" x2="309.4" y2="218.4"/>
	<line class="st6" x1="232" y1="242.5" x2="232" y2="255.6"/>
	<line class="st6" x1="273.6" y1="197" x2="264.6" y2="197"/>
	<line class="st6" x1="173.8" y1="289.4" x2="173.8" y2="280.3"/>
	<line class="st6" x1="190.4" y1="289.4" x2="190.4" y2="276.3"/>
	<line class="st6" x1="207.1" y1="289.4" x2="207.1" y2="276.3"/>
	<line class="st6" x1="223.7" y1="289.4" x2="223.7" y2="276.3"/>
	<line class="st6" x1="240.3" y1="289.4" x2="240.3" y2="276.3"/>
	<line class="st6" x1="257" y1="289.4" x2="257" y2="276.3"/>
	<line class="st6" x1="273.6" y1="289.4" x2="273.6" y2="276.3"/>
	<line class="st6" x1="290.3" y1="289.4" x2="290.3" y2="276.3"/>
	<line class="st6" x1="306.9" y1="289.4" x2="306.9" y2="276.3"/>
	<line class="st6" x1="323.6" y1="289.4" x2="323.6" y2="276.3"/>
	<line class="st6" x1="340.2" y1="289.4" x2="340.2" y2="276.3"/>
	<line class="st6" x1="356.8" y1="289.4" x2="356.8" y2="276.3"/>
	<line class="st6" x1="373.5" y1="289.4" x2="373.5" y2="280.3"/>
	<g>
		<polyline class="st6" points="254.5,332.7 273.6,332.7 292.8,332.7 		"/>
		<polyline class="st6" points="254.5,352.9 273.6,352.9 292.8,352.9 		"/>
	</g>
	<polyline class="st6" points="273.6,352.9 273.6,339.9 273.6,326.3 273.6,313.4 	"/>
	<line class="st6" x1="424" y1="372.5" x2="122.6" y2="372.5"/>
	<line class="st6" x1="204.1" y1="313.4" x2="204.1" y2="344.6"/>
	<line class="st6" x1="216.4" y1="325.7" x2="216.4" y2="332.7"/>
	<line class="st6" x1="352.6" y1="345.7" x2="352.6" y2="352.7"/>
	<line class="st6" x1="306.9" y1="340.2" x2="306.9" y2="362.8"/>
	<rect x="323.6" y="305.7" class="st6" width="29.1" height="23.3"/>
	<rect x="323.6" y="305.7" class="st6" width="29.1" height="11.6"/>
	<path class="st6" d="M221.3,382.1c18.4,0,18.4,12.2,36.9,12.2c18.4,0,18.4-12.2,36.9-12.2c18.4,0,18.4,12.2,36.9,12.2
		c18.4,0,18.4-12.2,36.9-12.2s18.4,12.2,36.9,12.2"/>
	<path class="st6" d="M263.6,403.1c11.5,0,11.5,7.6,23,7.6s11.5-7.6,23-7.6s11.5,7.6,23,7.6s11.5-7.6,23-7.6s11.5,7.6,23,7.6"/>
	<path class="st6" d="M207.1,415.5c11.5,0,11.5,7.6,23,7.6s11.5-7.6,23-7.6s11.5,7.6,23,7.6s11.5-7.6,23-7.6s11.5,7.6,23,7.6"/>
	<path class="st6" d="M76.8,399.3c11.5,0,11.5,7.6,23,7.6s11.5-7.6,23-7.6s11.5,7.6,23,7.6s11.5-7.6,23-7.6s11.5,7.6,23,7.6"/>
	<path class="st6" d="M76.8,382.1c11.5,0,11.5,7.6,23,7.6s11.5-7.6,23-7.6s11.5,7.6,23,7.6s11.5-7.6,23-7.6s11.5,7.6,23,7.6"/>
</g>
</svg>
