<?xml version="1.0" encoding="utf-8"?>
<!-- Generator: Adobe Illustrator 22.0.0, SVG Export Plug-In . SVG Version: 6.00 Build 0)  -->
<svg version="1.1" id="Layer_1" xmlns="http://www.w3.org/2000/svg" xmlns:xlink="http://www.w3.org/1999/xlink" x="0px" y="0px"
	 viewBox="0 0 65.1 65" style="enable-background:new 0 0 65.1 65;" xml:space="preserve">
<style type="text/css">
	.st0{fill:#AAC9E0;}
	.st1{fill:#0093C0;}
	.st2{fill:#FFFFFF;stroke:#0093C0;stroke-width:0.5;stroke-linecap:round;stroke-linejoin:round;stroke-miterlimit:10;}
	.st3{fill:none;stroke:#0093C0;stroke-width:0.5;stroke-linecap:round;stroke-linejoin:round;stroke-miterlimit:10;}
</style>
<g>
	<g>
		<g>
			<g>
				<path class="st0" d="M52.4,14.1c-0.4,0.3-0.9,0.3-1.2-0.1c-0.3-0.4-0.3-0.9,0.1-1.2l5-4.5c0,0,0,0,0,0c0.4-0.3,0.9-0.3,1.2,0.1
					c0.3,0.4,0.3,0.9-0.1,1.2L52.4,14.1L52.4,14.1z"/>
			</g>
			<g>
				<g>
					<polygon class="st0" points="54.9,15.4 48.2,16.7 50.4,10.3 					"/>
				</g>
			</g>
		</g>
		<g>
			<g>
				<path class="st0" d="M51.7,52.3c-0.3-0.4-0.3-0.9,0.1-1.2c0.4-0.3,0.9-0.3,1.2,0.1l4.5,5l0,0c0.3,0.4,0.3,0.9-0.1,1.2
					c-0.4,0.3-0.9,0.3-1.2-0.1L51.7,52.3C51.7,52.3,51.7,52.3,51.7,52.3z"/>
			</g>
			<g>
				<g>
					<polygon class="st0" points="50.4,54.7 49.1,48.1 55.5,50.2 					"/>
				</g>
			</g>
		</g>
		<g>
			<g>
				<path class="st0" d="M12.1,50.6c0.4-0.3,0.9-0.3,1.2,0.1c0.3,0.4,0.3,0.9-0.1,1.2l-5,4.5c0,0,0,0,0,0c-0.4,0.3-0.9,0.3-1.2-0.1
					c-0.3-0.4-0.3-0.9,0.1-1.2L12.1,50.6C12.1,50.6,12.1,50.6,12.1,50.6z"/>
			</g>
			<g>
				<g>
					<polygon class="st0" points="9.7,49.4 16.3,48 14.2,54.5 					"/>
				</g>
			</g>
		</g>
		<g>
			<g>
				<path class="st0" d="M14.7,12.1c0.3,0.4,0.3,0.9-0.1,1.2c-0.4,0.3-0.9,0.3-1.2-0.1l-4.5-5l0,0C8.6,7.8,8.6,7.2,9,6.9
					C9.3,6.6,9.9,6.7,10.2,7L14.7,12.1L14.7,12.1z"/>
			</g>
			<g>
				<g>
					<polygon class="st0" points="16,9.6 17.3,16.3 10.9,14.1 					"/>
				</g>
			</g>
		</g>
		<g>
			<g>
				<path class="st1" d="M32.1,65c-0.4,0-0.7-0.3-0.7-0.7l0-5.4c0-0.4,0.3-0.7,0.7-0.7l0,0c0.4,0,0.7,0.3,0.7,0.7l0,5.4
					C32.8,64.7,32.5,65,32.1,65z"/>
			</g>
			<g>
				<g>
					<polygon class="st1" points="34.8,59.7 32.1,55 29.3,59.7 					"/>
				</g>
			</g>
		</g>
		<g>
			<g>
				<path class="st1" d="M6.1,32.7H0.7C0.3,32.7,0,32.4,0,32c0-0.4,0.3-0.7,0.7-0.7h5.4c0.4,0,0.7,0.3,0.7,0.7
					C6.8,32.4,6.5,32.7,6.1,32.7z"/>
			</g>
			<g>
				<g>
					<polygon class="st1" points="5.3,34.7 10.1,32 5.3,29.2 					"/>
				</g>
			</g>
		</g>
		<g>
			<g>
				<path class="st1" d="M32.3,6.8c-0.4,0-0.7-0.3-0.7-0.7l0-5.4c0-0.4,0.3-0.7,0.7-0.7S33,0.3,33,0.7l0,5.4
					C33,6.5,32.7,6.8,32.3,6.8z"/>
			</g>
			<g>
				<g>
					<polygon class="st1" points="35.1,5.3 32.3,10.1 29.6,5.3 					"/>
				</g>
			</g>
		</g>
		<g>
			<g>
				<path class="st1" d="M58.9,32.5c-0.4,0-0.7-0.3-0.7-0.7c0-0.4,0.3-0.7,0.7-0.7l5.5-0.1h0c0.4,0,0.7,0.3,0.7,0.7
					c0,0.4-0.3,0.7-0.7,0.7L58.9,32.5L58.9,32.5z"/>
			</g>
			<g>
				<g>
					<polygon class="st1" points="59.7,34.5 54.9,31.8 59.7,29 					"/>
				</g>
			</g>
		</g>
	</g>
	<g>
		<g>
			<path class="st2" d="M44.9,32.8v9.9l-8.3,0.1l0.2-2l0.1-0.9c0-0.2,0-0.5,0-0.7c0-0.4-1.2-0.4-1.3-0.7l-0.2-5.5
				c0-0.6,0.3-1.2,0.8-1.5l1.2-0.7c0.2,0.2,0.4,0.2,0.7,0.2h4.8C44,30.8,44.9,31.7,44.9,32.8z"/>
		</g>
		<polyline class="st3" points="44.9,32.8 44.9,41.4 42.8,41.4 42.8,34.9 		"/>
		<path class="st3" d="M38.2,30.8c0.1,1.1,1,2,2.1,2c1.1,0,2-0.9,2.1-2"/>
		<polyline class="st2" points="35.5,33.4 35.5,41.4 37.5,41.4 37.5,34.9 		"/>
		<rect x="35.5" y="41.1" class="st2" width="2" height="1.4"/>
		<polyline class="st2" points="44.9,42.5 44.9,41.1 42.8,41.1 42.8,42.5 		"/>
		<path class="st2" d="M28,27.7V29c0,0.6-0.5,1.1-1.1,1.1c-0.6,0-1.1-0.5-1.1-1.1v-1.3H28z"/>
		<path class="st2" d="M22.5,42.5h8.7v-8.8v8.8h2.5l0-8.8c0-2.5-2-4.6-4.6-4.6h-4.6c-2.5,0-4.6,2-4.6,4.6v8.8H22.5l0-8.8"/>
		<path class="st2" d="M29.4,27.6h-8.5c-0.5,0-0.8,0.4-0.8,0.8v0.9c0,0.5,0.4,0.8,0.8,0.8h8.5c0.5,0,0.8-0.4,0.8-0.8v-0.9
			C30.2,28,29.8,27.6,29.4,27.6z"/>
		<g>
			<line class="st2" x1="31.2" y1="31.9" x2="31.2" y2="33.7"/>
			<line class="st2" x1="22.5" y1="31.9" x2="22.5" y2="33.7"/>
		</g>
		<path class="st2" d="M29.9,22.2c0,1.7-1.4,3.1-3.1,3.1c-1.7,0-3.1-1.4-3.1-3.1c0-0.1,0-0.2,0-0.3c0.1-1.1,0.7-2,1.6-2.5
			c0.2-0.1,0.4-0.2,0.6-0.3c0.3-0.1,0.6-0.1,0.9-0.1c1.3,0,2.4,0.8,2.8,1.8C29.8,21.3,29.9,21.8,29.9,22.2z"/>
		<g>
			<circle class="st2" cx="30.7" cy="24.3" r="0.8"/>
			<circle class="st2" cx="22.7" cy="24.3" r="0.8"/>
		</g>
		<g>
			<path class="st2" d="M23,23.5c-0.2,0.3-0.3,0.6-0.3,0.8c0,2.2,1.8,4,4,4s4-1.8,4-4c0-0.3-0.1-0.5-0.3-0.8H23z"/>
		</g>
		<path class="st3" d="M21.4,23.5"/>
		<path class="st2" d="M30.9,21h-8.3c-0.5,0-0.8,0.4-0.8,0.8v0.9c0,0.5,0.4,0.8,0.8,0.8h8.3c0.5,0,0.8-0.4,0.8-0.8v-0.9
			C31.7,21.3,31.3,21,30.9,21z"/>
		<path class="st2" d="M30.1,18.4h-6.6c-0.5,0-0.8,0.4-0.8,0.8v0.9c0,0.5,0.4,0.8,0.8,0.8h6.6c0.5,0,0.8-0.4,0.8-0.8v-0.9
			C31,18.8,30.6,18.4,30.1,18.4z"/>
		<rect x="26.8" y="33.4" class="st3" width="2.4" height="2.5"/>
		<path class="st2" d="M34.6,32.3c0.1,0.7,0.7,1.2,1.4,1.2h4.5c0.3,0,0.6-0.3,0.6-0.6h0.2c0.1,0,0.3,0,0.4,0
			c1.9-0.3,3.1-2.3,2.5-4.1v0c-0.1-0.3-0.2-0.6-0.2-1l0-2.4c0-2.1-1.6-3.8-3.7-3.9c-2.6-0.1-3.9,1.7-3.9,3.9c0,0,0,1,0,2.8
			c0,1.4-0.6,2.6-0.6,2.6c0,0-0.6,0.2-0.8,0.4C34.7,31.5,34.5,31.8,34.6,32.3z"/>
		<circle class="st2" cx="40.2" cy="26.2" r="2.3"/>
		<path class="st2" d="M37.3,42.5h-8v-3.6c0-1.4,1.2-2.6,2.6-2.6h2.8c1.4,0,2.6,1.2,2.6,2.6V42.5z"/>
		<path class="st2" d="M32.4,34.7v1c0,0.5,0.4,0.9,0.9,0.9c0.5,0,0.9-0.4,0.9-0.9v-1H32.4z"/>
		<path class="st2" d="M36.4,31.8c0,1.7-1.4,3.1-3.1,3.1c-1.7,0-3.1-1.4-3.1-3.1c0-0.1,0-0.2,0-0.3c0.1-1.1,0.7-2,1.6-2.5
			c0.2-0.1,0.4-0.2,0.6-0.3c0.3-0.1,0.6-0.1,0.9-0.1c1.3,0,2.4,0.8,2.8,1.8C36.3,30.9,36.4,31.4,36.4,31.8z"/>
		<line class="st2" x1="35.3" y1="42" x2="35.3" y2="39.5"/>
		<line class="st2" x1="31.3" y1="39.5" x2="31.3" y2="42"/>
		<line class="st2" x1="30.2" y1="31.6" x2="38.6" y2="31.6"/>
		<line class="st2" x1="47" y1="42.8" x2="18.1" y2="42.8"/>
	</g>
</g>
</svg>
