<?xml version="1.0" encoding="utf-8"?>
<!-- Generator: Adobe Illustrator 21.0.0, SVG Export Plug-In . SVG Version: 6.00 Build 0)  -->
<svg version="1.1" id="Layer_1" xmlns="http://www.w3.org/2000/svg" xmlns:xlink="http://www.w3.org/1999/xlink" x="0px" y="0px"
	 viewBox="0 0 352.8 397.2" style="enable-background:new 0 0 352.8 397.2;" xml:space="preserve">
<style type="text/css">
	.st0{fill:#E74E0F;}
	.st1{fill:#FFFFFF;}
</style>
<rect class="st0" width="352.8" height="397.2"/>
<path class="st1" d="M136.2,285.4c0.1-0.2,0.2-0.4,0.2-0.6C136.4,285,136.3,285.2,136.2,285.4 M139.5,260.6l1.8-2.3
	c-2.7,0.9-5.3,2.1-7.7,3.4L139.5,260.6z M150.3,315.3c-0.2-0.9-1-1.6-1.9-1.7c-1,0-1.8,0.6-2,1.6l-1.1,5.1c-0.2,0.7,0.1,1.5,0.7,2
	c0.4,0.3,0.8,0.4,1.3,0.4c0.3,0,0.6-0.1,0.8-0.2l1.8-0.8c0.8-0.4,1.3-1.3,1.1-2.1L150.3,315.3z M245.7,232.9
	c0.5,0.5,0.7,1.1,0.6,1.8c-1.5,13.2-9.2,19.5-15.5,22.4c-6.6,3.2-12.9,3.3-13.2,3.3c-8.6,0-16.6-3.7-22.2-10.1h-21.2
	c-0.1,1.6-0.4,3.2-0.9,4.7c18,7.2,30.8,24.9,30.8,45.5c0,27-21.9,49-48.9,49c-26.9,0-48.9-22-48.9-49c0-22.1,14.7-40.8,34.8-46.9
	c-0.3-1.3-0.5-2.7-0.5-4.1c0-9.3,7.5-16.8,16.8-16.8c0.3,0,0.6,0,1,0l19.8-25.5c0.4-0.5,1-0.8,1.7-0.8h37.4c0.6,0,1.1,0.2,1.5,0.6
	L245.7,232.9 M178.3,233.5c0.3,0,0.5,0,0.8,0h17.3l3.6,0.1c2.7,0,4.9-2.2,4.9-4.9c0-2.7-2.2-4.9-4.9-4.9h-14L178.3,233.5z
	 M119.5,274.3c-4.2,5.8-7.1,12.7-8.1,20.2l5.5-7.1c0.3-0.4,0.7-0.6,1.2-0.6l2.4,0.1l-3.7-1.6c-0.5-0.2-0.8-0.6-0.8-1.1
	c-0.1-0.5,0.1-1,0.5-1.3l4.8-3.7l-0.5-2.9c-0.1-0.6,0.2-1.1,0.6-1.4l10.7-6.7c0,0-0.1-0.1-0.1-0.1c-0.3-0.3-0.4-0.7-0.3-1.1l0.6-4.1
	c0-0.2,0.1-0.4,0.2-0.6c-2.9,1.7-5.5,3.8-7.9,6.1l0.7,1.5c0.2,0.5,0.2,1.1,0,1.6c-0.2,0.5-0.6,0.9-1.2,1.1l-4.6,1.7
	C119.6,274.3,119.5,274.3,119.5,274.3 M157.5,266.3c-3.5,0-6.7-1.1-9.3-2.9c-1.3,0.3-2.6,0.6-3.9,1c-0.4,0.1-0.7,0.5-0.7,0.9v4.2
	c0,0.3,0.2,0.6,0.4,0.8c0.3,0.2,0.6,0.2,0.9,0.1c3.6-1.3,7.3-2,11.1-2c4.6,0,9,1,13.2,2.8c0.1,0.1,0.3,0.1,0.4,0.1
	c0.2,0,0.4-0.1,0.5-0.2c0.3-0.2,0.5-0.5,0.5-0.8v-4.3c0-0.4-0.2-0.8-0.6-0.9c-1.3-0.5-2.6-0.9-4-1.3
	C163.5,265.4,160.6,266.3,157.5,266.3 M136.4,284.8c0,0.2-0.1,0.4-0.2,0.6C136.3,285.2,136.4,285,136.4,284.8 M122.4,286.6
	c-0.1,0.2-0.4,0.4-0.6,0.5l16.8,0.9l1.8-0.9l0.2-1c-1.5-0.1-3.8-0.3-4.9-0.3c-0.1,0-0.1,0-0.1,0c-0.1,0-0.3,0.1-0.5,0.1
	c-0.5,0-0.7,0-4-3l0,0.1c0.1,0.2,0.1,0.3,0.1,0.5c0,0.8-0.6,1.4-1.4,1.4c0,0,0,0,0,0c-0.3,0-0.5-0.1-0.8-0.2l-3.7-2.4L122.4,286.6
	 M141.4,258.3c-2.7,0.9-5.3,2.1-7.7,3.4l5.9-1.1L141.4,258.3z M157.5,262c6.6,0,12.1-5.2,12.5-11.7h-3.4c-1.2,0-2.1-1-2.1-2.1
	c0-2.6,0.7-5.2,2-7.4c-1.8-1.9-4.2-3.1-6.9-3.6c-0.7-0.1-1.3-0.2-2-0.2c-6.9,0-12.5,5.6-12.5,12.5C145,256.4,150.6,262,157.5,262
	 M169.9,342.5c17.3-6.1,29.7-22.6,29.7-42c0-6.6-1.4-12.8-4-18.4l-1.7,0.8c-0.5,0.2-1.1,0.2-1.5-0.2l-3.9-3.5l-0.1,0.1
	c1.3,3.9,2.6,8.1,3,8.9c0.1,0.1,0.1,0.2,0.2,0.3c0.4,1.1,0.4,1.1-7.8,8.5l1.4,14.9c0,0.1,0,0.2,0,0.3c0,0.8-0.6,1.4-1.4,1.4
	c-0.7,0-1.3-0.4-1.4-1.1L181,307l-2.6-3.8c-0.1-0.2-0.2-0.4-0.2-0.6l-0.8-5.6l-3.7-2.8l-2.7,2.4l-2,6.2c-0.2,0.5-0.6,0.9-1.2,1
	c-0.5,0.1-1.1-0.2-1.4-0.7l-6.6-10.5l-6.4-1.4l2.9,4.1c0.2,0.3,0.3,0.7,0.2,1.1c-0.1,0.4-0.3,0.7-0.7,0.9l-6,3.5l2.6,1.2
	c0.4,0.2,0.7,0.6,0.8,1c0.1,0.4,0,0.9-0.3,1.2l-6.2,7.1l-3,11.6c-0.1,0.2-0.1,0.4-0.3,0.5l-4.8,6.1c-0.2,0.2-0.4,0.4-0.6,0.4
	l-0.9,0.4c-0.2,0.1-0.3,0.1-0.5,0.1c-0.2,0-0.3,0-0.5-0.1l-5.6-1.9c-0.5-0.2-0.9-0.6-0.9-1.2l-1.8-13l-2.6-8.6
	c-1.3-0.9-2.6-1.8-3.3-2.3c0,0,0,0,0,0c-0.4,0.3-1,0.6-1.7,1c-1.2,0.7-2.4,1.4-2.4,1.4c-0.3,0.2-0.7,0.2-1.1,0.1
	c-0.4-0.1-0.7-0.4-0.8-0.7l-4.8-9.1c-0.1,1.4-0.2,2.7-0.2,4.1c0,19.1,12,35.4,28.9,41.7c1-0.4,2.3-0.8,4.2-1.4
	c2.8-0.9,5.7-1.7,5.8-1.7c0.1,0,0.3-0.1,0.4-0.1l9.1,0.4c0.1,0,0.2,0,0.3,0.1L169.9,342.5 M217.7,256.1c0.9,0,21.3-0.5,24.2-20.9
	l-25.4-24.6H181l-17.8,23c2.2,0.8,4.2,2,5.9,3.7c0.6-0.5,1.2-1,1.9-1.5c0,0,0-0.1,0.1-0.1l11.7-15c0.3-0.8,1.1-1.4,2-1.4H200
	c5.1,0,9.2,4.1,9.2,9.2c0,5.1-4.1,9.2-9.2,9.2l-3.6-0.1h-17.2c-1.8,0-3.6,0.5-5.2,1.4c-1.2,0.7-2.3,1.6-3.1,2.7
	c-1,1.3-1.6,2.7-1.9,4.2h27.7c0.9,0,1.6,0.5,2,1.3C203.3,252.9,210.3,256.1,217.7,256.1 M165.6,250.9c-1.1-0.5-2.4-0.1-3,1
	c-0.7,1.4-1.8,2.4-3.2,2.9c-1.2,0.4-1.8,1.7-1.4,2.8c0.3,0.9,1.2,1.5,2.1,1.5c0.2,0,0.5,0,0.7-0.1c2.5-0.9,4.6-2.7,5.8-5.1
	C167.1,252.7,166.7,251.4,165.6,250.9 M149.4,248c0.3,0.2,0.6,0.2,1,0.2c0.8,0,1.6-0.5,2-1.3c1-2.1,3.2-3.3,5.5-3.2
	c1.2,0.1,2.3-0.8,2.4-2.1c0.1-1.2-0.8-2.3-2.1-2.4c-4.2-0.3-8,1.9-9.8,5.7C147.9,246.2,148.3,247.5,149.4,248"/>
<g>
	<g>
		<g>
			<path class="st1" d="M36.9,108.8v-21H41v21H36.9z"/>
			<path class="st1" d="M57.8,108.8l-8.3-12.9v12.9h-4.1v-21H49l8.3,12.9V87.7h4.1v21H57.8z"/>
			<path class="st1" d="M73.4,108.8h-3.1l-6.9-21h4.3l4.2,13.7l4.2-13.7h4.3L73.4,108.8z"/>
			<path class="st1" d="M82.3,108.8v-21h13.9v3.7h-9.7v4.9h8.3v3.7h-8.3v5.1h9.7v3.7H82.3z"/>
			<path class="st1" d="M105.4,108.9c-3.2,0-5.6-0.7-7.7-2.8l2.7-2.7c1.3,1.3,3.1,1.8,5.1,1.8c2.4,0,3.7-0.9,3.7-2.6
				c0-0.7-0.2-1.4-0.7-1.8c-0.4-0.4-0.9-0.6-1.9-0.7l-2.5-0.4c-1.8-0.3-3.1-0.8-4.1-1.7c-1-1-1.5-2.4-1.5-4.1c0-3.8,2.8-6.4,7.3-6.4
				c2.9,0,5,0.7,6.8,2.5l-2.6,2.6c-1.3-1.3-2.9-1.4-4.3-1.4c-2.2,0-3.3,1.2-3.3,2.7c0,0.5,0.2,1.1,0.6,1.5c0.4,0.4,1.1,0.7,1.9,0.8
				l2.5,0.4c1.9,0.3,3.1,0.8,4,1.6c1.1,1.1,1.6,2.6,1.6,4.5C113.2,106.6,109.8,108.9,105.4,108.9z"/>
			<path class="st1" d="M124.5,91.4v17.4h-4.1V91.4h-5.5v-3.7H130v3.7H124.5z"/>
			<path class="st1" d="M36.9,139.1v-21H41v21H36.9z"/>
			<path class="st1" d="M57.8,139.1l-8.3-12.9v12.9h-4.1v-21H49l8.3,12.9V118h4.1v21H57.8z"/>
			<path class="st1" d="M83.2,139.1v-8.8h-7.1v8.8H72v-21h4.1v8.6h7.1V118h4.1v21H83.2z"/>
			<path class="st1" d="M99.1,139.2c-4.3,0-7.7-2.9-7.7-7.4V118h4.1v13.7c0,2.4,1.4,3.9,3.6,3.9c2.2,0,3.7-1.4,3.7-3.9V118h4.1v13.8
				C106.8,136.3,103.4,139.2,99.1,139.2z"/>
			<path class="st1" d="M125.8,139.1v-12.3l-4,8H119l-4-8v12.3h-4.1v-21h4l5.5,11.4l5.5-11.4h4v21H125.8z"/>
			<path class="st1" d="M146.1,139.1l-1.2-3.7h-7.5l-1.3,3.7h-4.3l7.7-21h3.2l7.7,21H146.1z M141.2,124.2l-2.7,7.7h5.2L141.2,124.2z
				"/>
			<path class="st1" d="M164.9,139.1l-8.3-12.9v12.9h-4.1v-21h3.7l8.3,12.9V118h4.1v21H164.9z"/>
			<path class="st1" d="M172.9,139.1v-21h4.1v21H172.9z"/>
			<path class="st1" d="M189.3,121.7v17.4h-4.1v-17.4h-5.5V118h15.1v3.7H189.3z"/>
			<path class="st1" d="M205.6,130.4v8.6h-4.1v-8.6l-6.3-12.4h4.5l3.9,8.5l3.9-8.5h4.5L205.6,130.4z"/>
		</g>
	</g>
	<g>
		<g>
			<path class="st1" d="M41,77.8c-1,0-2-0.4-2.7-1.1c-1-1-1-2-1-4.5c0-2.5,0-3.5,1-4.5c0.7-0.7,1.7-1.1,2.7-1.1c2,0,3.4,1.2,3.7,3.2
				h-0.8c-0.3-1.5-1.4-2.5-2.9-2.5c-0.8,0-1.5,0.3-2.1,0.8c-0.8,0.8-0.8,1.7-0.8,4c0,2.3,0.1,3.2,0.8,4c0.6,0.6,1.3,0.8,2.1,0.8
				c1.5,0,2.6-0.9,2.9-2.5h0.8C44.3,76.5,42.9,77.8,41,77.8z"/>
			<path class="st1" d="M53.3,76.7c-0.7,0.7-1.7,1.1-2.7,1.1c-1.1,0-2-0.4-2.7-1.1c-1-1-1-2-1-4.5c0-2.5,0-3.5,1-4.5
				c0.7-0.7,1.7-1.1,2.7-1.1c1,0,2,0.4,2.7,1.1c1,1,1,2,1,4.5C54.4,74.7,54.3,75.7,53.3,76.7z M52.7,68.2c-0.6-0.6-1.3-0.8-2.1-0.8
				c-0.8,0-1.5,0.3-2.1,0.8c-0.8,0.8-0.8,1.7-0.8,4c0,2.3,0.1,3.2,0.8,4c0.6,0.6,1.3,0.8,2.1,0.8c0.8,0,1.5-0.3,2.1-0.8
				c0.8-0.8,0.8-1.7,0.8-4C53.5,69.8,53.5,69,52.7,68.2z"/>
			<path class="st1" d="M60.9,72.6h-3v5.1H57v-11h4.2c1.8,0,3.2,1,3.2,3c0,1.7-1,2.7-2.5,3l2.7,5.1h-1L60.9,72.6z M61.1,67.4h-3.2
				v4.4h3.2c1.4,0,2.4-0.7,2.4-2.2C63.5,68.1,62.5,67.4,61.1,67.4z"/>
			<path class="st1" d="M66.8,66.7h6.7v0.7h-5.8v4.3h5v0.7h-5v4.4h5.8v0.7h-6.7V66.7z"/>
			<path class="st1" d="M83.3,72.6h-3v5.1h-0.8v-11h4.2c1.8,0,3.2,1,3.2,3c0,1.7-1,2.7-2.5,3l2.7,5.1h-1L83.3,72.6z M83.5,67.4h-3.2
				v4.4h3.2c1.4,0,2.4-0.7,2.4-2.2C85.9,68.1,84.9,67.4,83.5,67.4z"/>
			<path class="st1" d="M89.2,66.7h6.7v0.7h-5.8v4.3h5v0.7h-5v4.4h5.8v0.7h-6.7V66.7z"/>
			<path class="st1" d="M100.9,77.8c-1.6,0-2.7-0.4-3.7-1.5l0.6-0.6c1,1,1.8,1.3,3.1,1.3c1.7,0,2.8-0.8,2.8-2.3
				c0-0.7-0.2-1.2-0.6-1.5c-0.4-0.3-0.7-0.5-1.6-0.6l-1.3-0.2c-0.8-0.1-1.5-0.4-2-0.8c-0.6-0.5-0.9-1.2-0.9-2c0-1.9,1.3-3,3.4-3
				c1.4,0,2.2,0.4,3.2,1.2l-0.5,0.5c-0.6-0.6-1.4-1-2.7-1c-1.6,0-2.5,0.9-2.5,2.3c0,0.6,0.2,1.1,0.6,1.4c0.4,0.3,1,0.6,1.6,0.7
				l1.2,0.2c1,0.1,1.5,0.3,2,0.7c0.6,0.5,1,1.3,1,2.1C104.6,76.6,103.2,77.8,100.9,77.8z"/>
			<path class="st1" d="M110.9,73h-3.2v4.7h-0.8v-11h4c1.9,0,3.3,1.1,3.3,3.2C114.3,71.9,112.8,73,110.9,73z M110.8,67.4h-3.1v4.8
				h3.1c1.5,0,2.6-0.8,2.6-2.4S112.4,67.4,110.8,67.4z"/>
			<path class="st1" d="M122.4,76.7c-0.7,0.7-1.7,1.1-2.7,1.1c-1,0-2-0.4-2.7-1.1c-1-1-1-2-1-4.5c0-2.5,0-3.5,1-4.5
				c0.7-0.7,1.7-1.1,2.7-1.1c1.1,0,2,0.4,2.7,1.1c1,1,1,2,1,4.5C123.4,74.7,123.4,75.7,122.4,76.7z M121.8,68.2
				c-0.6-0.6-1.3-0.8-2.1-0.8c-0.8,0-1.5,0.3-2.1,0.8c-0.8,0.8-0.8,1.7-0.8,4c0,2.3,0.1,3.2,0.8,4c0.6,0.6,1.3,0.8,2.1,0.8
				c0.8,0,1.5-0.3,2.1-0.8c0.8-0.8,0.8-1.7,0.8-4C122.6,69.8,122.5,69,121.8,68.2z"/>
			<path class="st1" d="M126.9,68.1v9.6h-0.8v-11h0.8l6.3,9.5v-9.5h0.8v11h-0.8L126.9,68.1z"/>
			<path class="st1" d="M139.9,77.8c-1.6,0-2.7-0.4-3.7-1.5l0.6-0.6c1,1,1.8,1.3,3.1,1.3c1.7,0,2.8-0.8,2.8-2.3
				c0-0.7-0.2-1.2-0.6-1.5c-0.4-0.3-0.7-0.5-1.6-0.6l-1.3-0.2c-0.8-0.1-1.5-0.4-2-0.8c-0.6-0.5-0.9-1.2-0.9-2c0-1.9,1.3-3,3.4-3
				c1.4,0,2.2,0.4,3.2,1.2l-0.5,0.5c-0.6-0.6-1.4-1-2.7-1c-1.6,0-2.5,0.9-2.5,2.3c0,0.6,0.2,1.1,0.6,1.4c0.4,0.3,1,0.6,1.6,0.7
				l1.2,0.2c1,0.1,1.5,0.3,2,0.7c0.6,0.5,1,1.3,1,2.1C143.7,76.6,142.2,77.8,139.9,77.8z"/>
			<path class="st1" d="M146,66.7h0.8v11H146V66.7z"/>
			<path class="st1" d="M154,77.7h-4.2v-11h4c1.8,0,3.2,1.1,3.2,2.9c0,1.2-0.6,2.1-1.7,2.5c1.2,0.4,1.9,1.4,1.9,2.7
				C157.3,76.7,156,77.7,154,77.7z M153.8,67.4h-3.1v4.3h3.1c1.3,0,2.4-0.6,2.4-2.1C156.3,68.1,155.2,67.4,153.8,67.4z M153.9,72.4
				h-3.2v4.5h3.2c1.5,0,2.5-0.8,2.5-2.3C156.4,73.3,155.4,72.4,153.9,72.4z"/>
			<path class="st1" d="M159.9,66.7h0.8v11h-0.8V66.7z"/>
			<path class="st1" d="M163.8,66.7h0.8v10.3h5.8v0.7h-6.7V66.7z"/>
			<path class="st1" d="M172.4,66.7h0.8v11h-0.8V66.7z"/>
			<path class="st1" d="M179.2,77.7h-0.8V67.4h-3.3v-0.7h7.4v0.7h-3.3V77.7z"/>
			<path class="st1" d="M186.8,77.7H186v-4.6l-3.2-6.4h0.9l2.8,5.6l2.7-5.6h0.9l-3.2,6.4V77.7z"/>
		</g>
	</g>
	<g>
		<g>
			<path class="st1" d="M50.7,46.9l-0.5,3.2h2v3.6h-2.6l-0.9,5.6h-4l0.9-5.6h-3.4l-0.9,5.6h-4l0.9-5.6h-2v-3.6h2.6l0.5-3.2h-2.1
				v-3.6h2.6l0.8-5.2h4l-0.8,5.2h3.4l0.8-5.2h4l-0.8,5.2h2v3.6H50.7z M43.2,46.9l-0.5,3.2h3.4l0.5-3.2H43.2z"/>
			<path class="st1" d="M66.9,57.7c-0.9,0.9-2.5,1.7-4.6,1.7c-2.2,0-3.8-0.8-4.7-1.7c-1.3-1.3-1.6-2.8-1.7-4.4h3.8
				c0.2,1.7,1,2.6,2.6,2.6c0.7,0,1.4-0.2,1.8-0.7c0.7-0.7,0.8-1.8,0.8-3.1c0-2.4-0.7-3.8-2.6-3.8c-1.6,0-2.3,0.9-2.5,1.7h-3.5V38.3
				h12v3.5h-8.5v4.5c0.6-0.5,1.7-1.1,3.2-1.1c1.7,0,3.1,0.6,3.9,1.4c1.7,1.7,1.9,3.6,1.9,5.6C68.7,54.6,68.4,56.2,66.9,57.7z"/>
		</g>
	</g>
</g>
</svg>
