<?xml version="1.0" encoding="utf-8"?>
<!-- Generator: Adobe Illustrator 21.0.0, SVG Export Plug-In . SVG Version: 6.00 Build 0)  -->
<svg version="1.1" id="Layer_1" xmlns="http://www.w3.org/2000/svg" xmlns:xlink="http://www.w3.org/1999/xlink" x="0px" y="0px"
	 viewBox="0 0 80 40" style="enable-background:new 0 0 80 40;" xml:space="preserve">
<style type="text/css">
	.st0{fill:#FFFFFF;}
	.st1{fill:#191919;}
	.st2{fill:#CBE0EF;}
	.st3{fill:#5091CD;}
</style>
<g>
	<path class="st0" d="M20,0c11,0,20,9,20,20s-9,20-20,20S0,31,0,20S9,0,20,0"/>
	<path class="st1" d="M7.4,29.2h25.4V10.8H7.4V29.2z M20,22.6l3.2-2.4l6.8,7H10l6.8-7L20,22.6z M20,19.2l-8-5.8h16L20,19.2z
		 M15.8,19.6l-6.6,7V14.8L15.8,19.6z M30.8,26.4l-6.6-7l6.6-4.8V26.4z"/>
</g>
<g>
	<path class="st2" d="M60,0c11,0,20,9,20,20s-9,20-20,20s-20-9-20-20S49,0,60,0"/>
	<path class="st3" d="M47.4,29.2h25.4V10.8H47.4V29.2z M60,22.6l3.2-2.4l6.8,7H50l6.8-7L60,22.6z M60,19.2l-8-5.8h16L60,19.2z
		 M55.8,19.6l-6.6,7V14.8L55.8,19.6z M70.8,26.4l-6.6-7l6.6-4.8V26.4z"/>
</g>
</svg>
