<?xml version="1.0" encoding="utf-8"?>
<!-- Generator: Adobe Illustrator 21.0.0, SVG Export Plug-In . SVG Version: 6.00 Build 0)  -->
<svg version="1.1" id="Layer_1" xmlns="http://www.w3.org/2000/svg" xmlns:xlink="http://www.w3.org/1999/xlink" x="0px" y="0px"
	 viewBox="0 0 80 40" style="enable-background:new 0 0 80 40;" xml:space="preserve">
<style type="text/css">
	.st0{fill:#FFFFFF;}
	.st1{fill:#191919;}
	.st2{fill:#CBE0EF;}
	.st3{fill:#5091CD;}
</style>
<g>
	<path class="st0" d="M20,0c11,0,20,9,20,20s-9,20-20,20S0,31,0,20S9,0,20,0"/>
	<path class="st1" d="M32,10.2c-1,0.6-2,1-3.2,1.2c-1-1-2.4-1.4-3.8-1.4c-3,0-5.2,2.2-5.2,5c0,0.4,0,0.8,0.2,1.2
		C15.6,16,11.8,14,9.4,11c-0.4,0.6-0.8,1.6-0.8,2.6c0,1.8,1,3.4,2.2,4.2c-0.8,0-1.6-0.2-2.2-0.8l0,0c0,2.4,1.8,4.6,4,5
		c-0.4,0-1,0.2-1.4,0.2s-0.6,0-1,0c0.6,2,2.6,3.6,4.8,3.6c-1.8,1.4-4,2.2-6.4,2.2c-0.4,0-0.8,0-1.2,0c2.2,1.4,5,2.4,7.8,2.4
		c9.4,0,14.6-7.8,14.6-14.6V15c1-0.8,1.8-1.6,2.6-2.6c-1,0.4-2,0.6-3,0.8C30.6,12.4,31.6,11.4,32,10.2"/>
</g>
<g>
	<path class="st2" d="M60,0c11,0,20,9,20,20s-9,20-20,20s-20-9-20-20S49,0,60,0"/>
	<path class="st3" d="M72,10.2c-1,0.6-2,1-3.2,1.2c-1-1-2.4-1.4-3.8-1.4c-3,0-5.2,2.2-5.2,5c0,0.4,0,0.8,0.2,1.2
		C55.6,16,51.8,14,49.4,11c-0.4,0.6-0.8,1.6-0.8,2.6c0,1.8,1,3.4,2.2,4.2c-0.8,0-1.6-0.2-2.2-0.8l0,0c0,2.4,1.8,4.6,4,5
		c-0.4,0-1,0.2-1.4,0.2s-0.6,0-1,0c0.6,2,2.6,3.6,4.8,3.6c-1.8,1.4-4,2.2-6.4,2.2c-0.4,0-0.8,0-1.2,0c2.2,1.4,5,2.4,7.8,2.4
		c9.4,0,14.6-7.8,14.6-14.6V15c1-0.8,1.8-1.6,2.6-2.6c-1,0.4-2,0.6-3,0.8C70.6,12.4,71.6,11.4,72,10.2"/>
</g>
</svg>
