<?xml version="1.0" encoding="utf-8"?>
<!-- Generator: Adobe Illustrator 21.0.0, SVG Export Plug-In . SVG Version: 6.00 Build 0)  -->
<svg version="1.1" id="Layer_1" xmlns="http://www.w3.org/2000/svg" xmlns:xlink="http://www.w3.org/1999/xlink" x="0px" y="0px"
	 viewBox="0 0 80 40" style="enable-background:new 0 0 80 40;" xml:space="preserve">
<style type="text/css">
	.st0{fill:#FFFFFF;}
	.st1{fill:#191919;}
	.st2{fill:#CBE0EF;}
	.st3{fill:#5091CD;}
</style>
<g>
	<path class="st0" d="M20,0c11,0,20,9,20,20s-9,20-20,20S0,31,0,20S9,0,20,0"/>
	<path class="st1" d="M16.6,32.4h5.2V20h3.6l0.4-4.4h-4V13c0-1,0.6-1.2,1-1.2h2.8V7.6H22c-4.2,0-5.2,3.2-5.2,5.2v2.8h-2.6V20h2.4
		V32.4z"/>
</g>
<g>
	<path class="st2" d="M60,0c11,0,20,9,20,20s-9,20-20,20s-20-9-20-20S49,0,60,0"/>
	<path class="st3" d="M56.6,32.4h5.2V20h3.6l0.4-4.4h-4V13c0-1,0.6-1.2,1-1.2h2.8V7.6H62c-4.2,0-5.2,3.2-5.2,5.2v2.8h-2.6V20h2.4
		C56.6,20,56.6,32.4,56.6,32.4z"/>
</g>
</svg>
