<?xml version="1.0" encoding="utf-8"?>
<!-- Generator: Adobe Illustrator 21.0.0, SVG Export Plug-In . SVG Version: 6.00 Build 0)  -->
<svg version="1.1" id="Layer_1" xmlns="http://www.w3.org/2000/svg" xmlns:xlink="http://www.w3.org/1999/xlink" x="0px" y="0px"
	 viewBox="0 0 80 40" style="enable-background:new 0 0 80 40;" xml:space="preserve">
<style type="text/css">
	.st0{fill:#FFFFFF;}
	.st1{fill:#191919;}
	.st2{fill:#CBE0EF;}
	.st3{fill:#5091CD;}
</style>
<g>
	<path class="st0" d="M20,0c11,0,20,9,20,20s-9,20-20,20S0,31,0,20S9,0,20,0"/>
	<path class="st1" d="M15,33c0,0.2,0.2,0.2,0.4,0s2-2.4,2.6-4.6c0.2-0.6,1-4,1-4c0.4,1,2,1.8,3.6,1.8c4.6,0,7.8-4.2,7.8-9.8
		C30.2,12,26.6,8,21,8c-6.6,0-10.2,5-10.2,9c0,2.4,1,4.6,3,5.6c0.4,0.2,0.6,0,0.8-0.4c0-0.2,0.2-1,0.4-1.2c0-0.4,0-0.4-0.2-0.8
		c-0.8-0.6-1-1.6-1-2.8c0-3.6,2.8-7,7-7c3.8,0,6,2.4,6,5.6c0,4.2-1.8,7.6-4.6,7.6c-1.6,0-2.6-1.2-2.2-2.8c0.4-1.8,1.2-3.8,1.2-5
		s-0.6-2.2-2-2.2c-1.6,0-2.8,1.6-2.8,3.8c0,1.4,0.4,2.2,0.4,2.2s-1.6,6.6-1.8,7.8C14.4,29.8,15,32.6,15,33"/>
</g>
<g>
	<path class="st2" d="M60,0c11,0,20,9,20,20s-9,20-20,20s-20-9-20-20S49,0,60,0"/>
	<path class="st3" d="M55,33c0,0.2,0.2,0.2,0.4,0s2-2.4,2.6-4.6c0.2-0.6,1-4,1-4c0.4,1,2,1.8,3.6,1.8c4.6,0,7.8-4.2,7.8-9.8
		C70.2,12,66.6,8,61,8c-6.6,0-10.2,5-10.2,9c0,2.4,1,4.6,3,5.6c0.4,0.2,0.6,0,0.8-0.4c0-0.2,0.2-1,0.4-1.2c0-0.4,0-0.4-0.2-0.8
		c-0.8-0.6-1-1.6-1-2.8c0-3.6,2.8-7,7-7c3.8,0,6,2.4,6,5.6c0,4.2-1.8,7.6-4.6,7.6c-1.6,0-2.6-1.2-2.2-2.8c0.4-1.8,1.2-3.8,1.2-5
		s-0.6-2.2-2-2.2c-1.6,0-2.8,1.6-2.8,3.8c0,1.4,0.4,2.2,0.4,2.2s-1.6,6.6-1.8,7.8C54.4,29.8,55,32.6,55,33"/>
</g>
</svg>
