<?xml version="1.0" encoding="utf-8"?>
<!-- Generator: Adobe Illustrator 21.0.0, SVG Export Plug-In . SVG Version: 6.00 Build 0)  -->
<svg version="1.1" id="Layer_1" xmlns="http://www.w3.org/2000/svg" xmlns:xlink="http://www.w3.org/1999/xlink" x="0px" y="0px"
	 viewBox="0 0 80 40" style="enable-background:new 0 0 80 40;" xml:space="preserve">
<style type="text/css">
	.st0{fill:#FFFFFF;}
	.st1{fill:#191919;}
	.st2{fill:#CBE0EF;}
	.st3{fill:#5091CD;}
</style>
<g>
	<path class="st0" d="M20,0c11,0,20,9,20,20s-9,20-20,20S0,31,0,20S9,0,20,0"/>
	<rect x="8" y="15" class="st1" width="5.2" height="16.6"/>
	<path class="st1" d="M10.4,6.6c1.6,0,3,1.4,3,3s-1.4,3-3,3s-3-1.4-3-3C7.6,8,8.8,6.6,10.4,6.6"/>
	<path class="st1" d="M32.4,22.4c0-4.4-1-8-6.2-8c-2.4,0-4.2,1.4-5,2.6l0,0v-2h-5v16.6h5.2v-8.2c0-2.2,0.4-4.2,3-4.2
		s2.6,2.4,2.6,4.4v8h5.2L32.4,22.4z"/>
</g>
<g>
	<path class="st2" d="M60,0c11,0,20,9,20,20s-9,20-20,20s-20-9-20-20S49,0,60,0"/>
	<rect x="48" y="15" class="st3" width="5.2" height="16.6"/>
	<path class="st3" d="M50.4,6.6c1.6,0,3,1.4,3,3s-1.4,3-3,3s-3-1.4-3-3C47.6,8,48.8,6.6,50.4,6.6"/>
	<path class="st3" d="M72.4,22.4c0-4.4-1-8-6.2-8c-2.4,0-4.2,1.4-5,2.6l0,0v-2h-5v16.6h5.2v-8.2c0-2.2,0.4-4.2,3-4.2
		c2.6,0,2.6,2.4,2.6,4.4v8h5.2L72.4,22.4z"/>
</g>
</svg>
