<?xml version="1.0" encoding="utf-8"?>
<!-- Generator: Adobe Illustrator 22.0.0, SVG Export Plug-In . SVG Version: 6.00 Build 0)  -->
<svg version="1.1" id="Layer_1" xmlns="http://www.w3.org/2000/svg" xmlns:xlink="http://www.w3.org/1999/xlink" x="0px" y="0px"
	 viewBox="0 0 64.7 38.5" style="enable-background:new 0 0 64.7 38.5;" xml:space="preserve">
<style type="text/css">
	.st0{fill:#FFFFFF;stroke:#0093C0;stroke-width:0.5;stroke-linecap:round;stroke-linejoin:round;stroke-miterlimit:10;}
	.st1{fill:none;stroke:#0093C0;stroke-width:0.5;stroke-miterlimit:10;}
	.st2{fill:none;stroke:#0093C0;stroke-width:0.5;stroke-linejoin:round;stroke-miterlimit:10;}
	.st3{fill:none;stroke:#0093C0;stroke-width:0.5;stroke-linecap:round;stroke-miterlimit:10;}
	.st4{fill:#066EAD;stroke:#066EAD;stroke-width:0.5;stroke-miterlimit:10;}
	.st5{fill:#0093C0;stroke:#0093C0;stroke-width:0.5;stroke-miterlimit:10;}
</style>
<g>
	<circle class="st0" cx="53.1" cy="34.1" r="4.1"/>
	<path class="st0" d="M51.1,34.1c0-1.1,0.9-1.9,1.9-1.9"/>
	
		<ellipse transform="matrix(0.9989 -4.618512e-02 4.618512e-02 0.9989 -1.0403 2.8128)" class="st0" cx="60.4" cy="23.9" rx="4.1" ry="4.1"/>
	<path class="st0" d="M58.6,24.8c-0.5-1-0.1-2.1,0.9-2.6"/>
	<path class="st1" d="M17.5,19c0.2-3,2.7-5.3,5.7-5.1c3,0.2,5.3,2.7,5.1,5.7s-2.7,5.3-5.7,5.1S17.3,22,17.5,19z"/>
	
		<rect x="11.9" y="-2.8" transform="matrix(5.162733e-02 -0.9987 0.9987 5.162733e-02 2.4606 41.1817)" class="st0" width="22.1" height="44.2"/>
	<path class="st2" d="M23.3,11.3l16,0.8c-0.1,1.3,0.9,2.3,2.2,2.4L41,26c-1.3-0.1-2.3,0.9-2.4,2.2l-16-0.8l-16-0.8
		c0.1-1.3-0.9-2.3-2.2-2.4l0.6-11.5c1.3,0.1,2.3-0.9,2.4-2.2L23.3,11.3z"/>
	<ellipse transform="matrix(0.7867 -0.6173 0.6173 0.7867 -7.0243 18.2613)" class="st1" cx="22.9" cy="19.3" rx="5.4" ry="5.4"/>
	<line class="st3" x1="31.1" y1="18.8" x2="35.6" y2="19"/>
	<line class="st3" x1="30.6" y1="21.8" x2="35.1" y2="22.1"/>
	<line class="st3" x1="14.8" y1="18" x2="10.3" y2="17.7"/>
	<line class="st3" x1="14.9" y1="21" x2="10.3" y2="20.8"/>
	<path class="st4" d="M22.7,19.2c-0.2-0.1-0.3-0.1-0.5-0.2c-0.2-0.1-0.3-0.2-0.4-0.3c-0.1-0.1-0.2-0.3-0.3-0.4
		c-0.1-0.2-0.1-0.4-0.1-0.6c0-0.2,0.1-0.4,0.1-0.6c0.1-0.2,0.2-0.3,0.3-0.4c0.1-0.1,0.3-0.2,0.5-0.3c0.2-0.1,0.4-0.1,0.5-0.1l0-0.5
		l0.3,0l0,0.5c0.1,0,0.2,0,0.4,0.1c0.1,0,0.2,0.1,0.4,0.1s0.2,0.1,0.3,0.2c0.1,0.1,0.2,0.2,0.3,0.3l-0.4,0.3
		c-0.1-0.2-0.2-0.3-0.4-0.4c-0.2-0.1-0.3-0.1-0.5-0.2l-0.1,2c0.2,0.1,0.4,0.2,0.5,0.2c0.2,0.1,0.3,0.2,0.5,0.3
		c0.1,0.1,0.2,0.3,0.3,0.4c0.1,0.2,0.1,0.4,0.1,0.6c0,0.2-0.1,0.4-0.1,0.6c-0.1,0.2-0.2,0.3-0.3,0.4c-0.1,0.1-0.3,0.2-0.5,0.3
		c-0.2,0.1-0.4,0.1-0.6,0.1l0,0.5l-0.3,0l0-0.5c-0.3,0-0.6-0.1-0.9-0.3c-0.3-0.2-0.5-0.3-0.6-0.6l0.4-0.3c0.1,0.1,0.1,0.2,0.2,0.3
		s0.2,0.2,0.3,0.2c0.1,0.1,0.2,0.1,0.3,0.1c0.1,0,0.2,0.1,0.3,0.1L22.7,19.2z M22.8,16.8c-0.3,0-0.5,0.1-0.7,0.2s-0.3,0.4-0.3,0.7
		c0,0.3,0.1,0.5,0.2,0.6c0.2,0.2,0.4,0.3,0.6,0.4L22.8,16.8z M23,21.4c0.1,0,0.2,0,0.3,0c0.1,0,0.2-0.1,0.3-0.2
		c0.1-0.1,0.2-0.2,0.2-0.3c0.1-0.1,0.1-0.3,0.1-0.5c0-0.2-0.1-0.5-0.2-0.6c-0.2-0.2-0.4-0.3-0.7-0.4L23,21.4z"/>
	<path class="st1" d="M24.4,14.5c-0.4-3,1.8-5.7,4.8-6c3-0.4,5.7,1.8,6,4.8s-1.8,5.7-4.8,6S24.7,17.5,24.4,14.5z"/>
	<rect x="7.7" y="2.8" transform="matrix(0.9929 -0.1187 0.1187 0.9929 -1.4339 3.6328)" class="st0" width="44.2" height="22.1"/>
	<path class="st2" d="M28.8,5.9l16-1.9c0.1,1.3,1.3,2.2,2.6,2l1.4,11.4c-1.3,0.1-2.2,1.3-2,2.6l-16,1.9l-16,1.9
		c-0.1-1.3-1.3-2.2-2.6-2l-1.4-11.4c1.3-0.1,2.2-1.3,2-2.6L28.8,5.9z"/>
	<ellipse transform="matrix(0.6831 -0.7303 0.7303 0.6831 -0.6801 26.1482)" class="st1" cx="29.8" cy="13.9" rx="5.4" ry="5.4"/>
	<line class="st3" x1="37.8" y1="12" x2="42.3" y2="11.5"/>
	<line class="st3" x1="37.8" y1="15.1" x2="42.3" y2="14.5"/>
	<line class="st3" x1="21.6" y1="13.9" x2="17.1" y2="14.5"/>
	<line class="st3" x1="22.1" y1="16.9" x2="17.6" y2="17.5"/>
	<path class="st5" d="M29.6,13.8c-0.2,0-0.3-0.1-0.5-0.1c-0.2-0.1-0.3-0.1-0.5-0.2c-0.1-0.1-0.3-0.2-0.4-0.4
		c-0.1-0.1-0.2-0.3-0.2-0.6c0-0.2,0-0.4,0-0.6c0.1-0.2,0.1-0.3,0.3-0.5c0.1-0.1,0.3-0.2,0.4-0.3s0.3-0.1,0.5-0.2l-0.1-0.5l0.3,0
		l0.1,0.5c0.1,0,0.2,0,0.4,0c0.1,0,0.3,0,0.4,0.1c0.1,0,0.2,0.1,0.4,0.1c0.1,0.1,0.2,0.1,0.3,0.2l-0.4,0.4c-0.1-0.1-0.3-0.2-0.5-0.3
		c-0.2-0.1-0.4-0.1-0.5-0.1l0.2,2c0.2,0,0.4,0.1,0.6,0.1s0.4,0.1,0.5,0.2c0.2,0.1,0.3,0.2,0.4,0.4c0.1,0.2,0.2,0.3,0.2,0.6
		c0,0.2,0,0.4,0,0.6c-0.1,0.2-0.1,0.3-0.3,0.5c-0.1,0.1-0.3,0.2-0.4,0.3c-0.2,0.1-0.4,0.1-0.6,0.2l0.1,0.5l-0.3,0l-0.1-0.5
		c-0.3,0-0.6,0-0.9-0.1c-0.3-0.1-0.5-0.3-0.7-0.5l0.4-0.3c0.1,0.1,0.2,0.2,0.3,0.3c0.1,0.1,0.2,0.1,0.3,0.2c0.1,0,0.2,0.1,0.3,0.1
		c0.1,0,0.2,0,0.3,0L29.6,13.8z M29.3,11.4c-0.3,0-0.5,0.2-0.6,0.3c-0.2,0.2-0.2,0.4-0.2,0.7c0,0.3,0.1,0.5,0.3,0.6
		c0.2,0.1,0.4,0.2,0.7,0.3L29.3,11.4z M30.2,15.9c0.1,0,0.2-0.1,0.3-0.1c0.1,0,0.2-0.1,0.3-0.2c0.1-0.1,0.1-0.2,0.2-0.3
		c0-0.1,0.1-0.3,0-0.5c0-0.2-0.1-0.4-0.3-0.6c-0.2-0.1-0.4-0.2-0.7-0.3L30.2,15.9z"/>
</g>
</svg>
