<?xml version="1.0" encoding="utf-8"?>
<!-- Generator: Adobe Illustrator 21.0.0, SVG Export Plug-In . SVG Version: 6.00 Build 0)  -->
<svg version="1.1" id="Layer_1" xmlns="http://www.w3.org/2000/svg" xmlns:xlink="http://www.w3.org/1999/xlink" x="0px" y="0px"
	 viewBox="0 0 352.8 397.2" style="enable-background:new 0 0 352.8 397.2;" xml:space="preserve">
<style type="text/css">
	.st0{fill:#A762A3;}
	.st1{fill:#FFFFFF;}
</style>
<rect class="st0" width="352.8" height="397.2"/>
<path class="st1" d="M234.7,287.4l7.2-8c7.1-7.9,10.8-18.1,10.3-28.7c-0.5-10.6-5.1-20.4-13-27.6l-4.1-3.7
	c-16.3-14.8-41.5-13.5-56.3,2.7L155,248.5L139.3,266c-0.9,1-0.8,2.5,0.2,3.3c1.7,1.5,3.6,2.7,5.7,3.5l-44,48.5
	c-0.8,0.8-0.8,2.1-0.1,3c0.7,0.9,16.8,21.3,39.7,22.4c0.6,0,1.2,0,1.8,0c20,0,35.3-15.8,37.8-18.6l33.2-15.9l6.9-3
	c0.6-0.3,1-0.7,1.3-1.3c0.2-0.6,0.2-1.3-0.1-1.8c-0.9-1.9-2.1-3.5-3.5-4.9c0,0,0,0,0,0c1.2,0,2.5-0.1,3.9-0.3c0.2,0,0.3-0.1,0.5-0.2
	c3.4,2.7,7.3,3.6,10.7,3.6c3,0,5.6-0.7,7.5-1.4c0.6-0.3,1.1-0.8,1.3-1.4c0.2-0.6,0.1-1.4-0.2-1.9L234.7,287.4z M158.5,251.6
	l23.9-26.3c13-14.3,35.3-15.4,49.6-2.4l4.1,3.7c6.9,6.3,11,14.9,11.5,24.3c0.5,9.4-2.8,18.4-9.1,25.3l-6.2,6.9l-16.4-27.9
	c-0.4-0.7-1.2-1.2-2.1-1.2l-16.2,0.4c5-3.3,9.3-8.7,10.3-16.9c0.2-1.3-0.8-2.5-2.1-2.6c-1.3-0.2-2.5,0.8-2.6,2.1
	c-1.9,15.6-18.3,17.7-20.5,17.9l-4.7,0.1l2.6-2.9c0.9-1,0.8-2.5-0.2-3.3c-1-0.9-2.4-0.8-3.3,0.2l-14.6,15.9c-2.5,2.8-6,4.5-9.7,4.7
	c-3,0.2-5.8-0.6-8.3-2.1L158.5,251.6z M168.7,285.3l11.2,19.4c-6.1,2.5-9.4-0.6-10-1.3l-7.9-14.2c-0.5-0.9-0.7-2-0.4-3
	c0.3-1,0.9-1.8,1.8-2.4C165.2,282.8,167.5,283.5,168.7,285.3z M184.2,302.8l-11.3-19.6c0,0,0-0.1-0.1-0.1c0-0.1-0.1-0.2-0.2-0.2
	l-3.6-6.2c-0.5-0.9-0.7-2-0.4-3c0.3-1,0.9-1.9,1.8-2.4c0.9-0.5,2-0.7,3-0.4c0.9,0.3,1.7,0.9,2.1,1.7c0,0,0,0.1,0,0.1l11.1,19.3
	l4.5,7.7L184.2,302.8z M195.6,297.7l-4.7-8.1l-6.2-10.9c0-0.1,0-0.1-0.1-0.2l-2.7-4.6c-0.5-0.9-0.7-2-0.4-3c0.3-1,0.9-1.9,1.8-2.4
	c1.1-0.6,2.5-0.7,3.6-0.2c0.7,0.3,1.3,0.9,1.7,1.6l5.3,9.3c0.1,0.3,0.3,0.7,0.5,1l2.7,4.6c0.1,0.2,0.2,0.3,0.4,0.4l2.2,3.8
	c0.8,1.9,2.3,4.3,4.4,6.4c-2.6,0.1-5.2,0.6-7.6,1.8L195.6,297.7z M204.1,287.2c0-0.1-0.1-0.2-0.2-0.3l-5.5-9.5
	c-0.3-0.8-0.4-1.6-0.2-2.5c0.3-1,0.9-1.9,1.8-2.4c1.1-0.6,2.5-0.7,3.6-0.2c0.7,0.3,1.3,0.9,1.7,1.6l4.3,7.5l8.1,14
	c0,0,0.1,0,0.1,0.1c0,0,0,0,0,0c0.2,0.3,0.4,0.5,0.6,0.8C208,296.7,204.2,287.6,204.1,287.2z M222,293.2
	C222,293.2,222,293.2,222,293.2l-8.2-14.1l-4.3-7.5c-0.9-1.6-2.2-2.8-3.8-3.5c-2.5-1.2-5.5-1.1-8,0.3c-1.2,0.7-2.1,1.6-2.9,2.7
	l-2-3.5c-0.9-1.6-2.2-2.8-3.8-3.5c-2.6-1.2-5.5-1.1-8,0.3c-1.4,0.8-2.5,2-3.3,3.4c-0.8-0.6-1.8-1.1-2.8-1.5
	c-2.2-0.7-4.7-0.4-6.7,0.8c-2,1.2-3.4,3-4,5.3c-0.6,2.1-0.3,4.3,0.7,6.2c-1.3,0.1-2.6,0.4-3.8,1.1c-2,1.1-3.4,3-4,5.2
	c-0.6,2.2-0.3,4.6,0.8,6.5l8,14.4c0.1,0.1,0.1,0.2,0.2,0.3c1.9,2.5,7.8,6.3,16.2,2.6l16.3-7.3c3.4-1.6,7.2-1.8,10.8-0.6
	c2.8,1,5.1,2.8,6.8,5.1l-4.5,1.9c0,0-0.1,0-0.1,0l-33.7,16.1c-0.3,0.1-0.5,0.3-0.8,0.6c-0.2,0.2-16.2,18.2-36.1,17.3
	c-17.3-0.8-30.9-14.4-34.9-19l44.4-49c0.9,0.1,1.7,0.2,2.6,0.1c5-0.3,9.6-2.5,13-6.2l7.4-8.1l9-0.2c0,0,0,0,0.1,0c0,0,0.1,0,0.1,0
	c0.1,0,0.2,0,0.3,0l29.5-0.8l17.1,29.1c0.1,0.2,0.2,0.4,0.3,0.6l6.3,10.8C232.6,300,226.2,300,222,293.2z"/>
<g>
	<g>
		<g>
			<path class="st1" d="M36.9,108.8v-21H41v17.4h9.5v3.7H36.9z"/>
			<path class="st1" d="M53.3,108.8v-21h13.9v3.7h-9.7v4.9h8.3v3.7h-8.3v5.1h9.7v3.7H53.3z"/>
			<path class="st1" d="M82.6,108.8l-1.2-3.7h-7.5l-1.3,3.7h-4.3l7.7-21h3.2l7.7,21H82.6z M77.7,93.9l-2.7,7.7h5.2L77.7,93.9z"/>
			<path class="st1" d="M95.5,108.8h-3.1l-6.9-21h4.3l4.2,13.7l4.2-13.7h4.3L95.5,108.8z"/>
			<path class="st1" d="M104.4,108.8v-21h13.9v3.7h-9.7v4.9h8.3v3.7h-8.3v5.1h9.7v3.7H104.4z"/>
			<path class="st1" d="M140.4,108.8l-8.3-12.9v12.9h-4.1v-21h3.7l8.3,12.9V87.7h4.1v21H140.4z"/>
			<path class="st1" d="M161.1,106.6c-1.5,1.5-3.3,2.3-5.7,2.3s-4.2-0.8-5.7-2.3c-2.1-2.1-2.1-4.8-2.1-8.4s-0.1-6.3,2.1-8.4
				c1.5-1.5,3.3-2.3,5.7-2.3s4.2,0.8,5.7,2.3c2.1,2.1,2.1,4.8,2.1,8.4S163.2,104.5,161.1,106.6z M158.1,92.3
				c-0.6-0.7-1.5-1.1-2.6-1.1s-2.1,0.4-2.7,1.1c-0.8,0.9-1,1.9-1,5.9s0.2,5,1,5.9c0.6,0.7,1.5,1.1,2.7,1.1s2-0.4,2.6-1.1
				c0.8-0.9,1-1.9,1-5.9S158.9,93.2,158.1,92.3z"/>
			<path class="st1" d="M49.6,136.9c-1.5,1.5-3.3,2.3-5.7,2.3s-4.2-0.8-5.7-2.3c-2.1-2.1-2.1-4.8-2.1-8.4c0-3.6-0.1-6.3,2.1-8.4
				c1.5-1.5,3.3-2.3,5.7-2.3s4.2,0.8,5.7,2.3c2.1,2.1,2.1,4.8,2.1,8.4C51.7,132.2,51.8,134.8,49.6,136.9z M46.6,122.6
				c-0.6-0.7-1.5-1.1-2.6-1.1s-2.1,0.4-2.7,1.1c-0.8,0.9-1,1.9-1,5.9c0,4,0.2,5,1,5.9c0.6,0.7,1.5,1.1,2.7,1.1s2-0.4,2.6-1.1
				c0.8-0.9,1-1.9,1-5.9C47.6,124.5,47.4,123.5,46.6,122.6z"/>
			<path class="st1" d="M67.8,139.1l-8.3-12.9v12.9h-4.1v-21H59l8.3,12.9V118h4.1v21H67.8z"/>
			<path class="st1" d="M75.8,139.1v-21h13.9v3.7h-9.7v4.9h8.3v3.7h-8.3v5.1h9.7v3.7H75.8z"/>
			<path class="st1" d="M108.1,139.1h-8.8v-21h8.4c4.1,0,6.5,2.3,6.5,5.9c0,2.3-1.5,3.8-2.6,4.3c1.3,0.6,2.9,1.9,2.9,4.7
				C114.6,136.9,111.9,139.1,108.1,139.1z M107.4,121.7h-4v4.8h4c1.7,0,2.7-1,2.7-2.4C110.2,122.7,109.2,121.7,107.4,121.7z
				 M107.7,130.2h-4.3v5.2h4.3c1.9,0,2.7-1.2,2.7-2.6S109.6,130.2,107.7,130.2z"/>
			<path class="st1" d="M118.2,139.1v-21H132v3.7h-9.7v4.9h8.3v3.7h-8.3v5.1h9.7v3.7H118.2z"/>
			<path class="st1" d="M146.7,139.1v-8.8h-7.1v8.8h-4.1v-21h4.1v8.6h7.1V118h4.1v21H146.7z"/>
			<path class="st1" d="M155.1,139.1v-21h4.1v21H155.1z"/>
			<path class="st1" d="M176,139.1l-8.3-12.9v12.9h-4.1v-21h3.7l8.3,12.9V118h4.1v21H176z"/>
			<path class="st1" d="M197.1,137.1c-1.4,1.4-3.4,2-5.6,2h-7.6v-21h7.6c2.2,0,4.2,0.6,5.6,2c2.4,2.4,2.1,5.3,2.1,8.4
				C199.2,131.6,199.5,134.7,197.1,137.1z M194.2,123c-0.7-0.9-1.7-1.3-3.1-1.3H188v13.7h3.1c1.4,0,2.4-0.4,3.1-1.3
				c0.8-0.9,0.9-2.5,0.9-5.6C195.1,125.3,195,123.9,194.2,123z"/>
		</g>
	</g>
	<g>
		<g>
			<path class="st1" d="M41,77.8c-1.1,0-2-0.4-2.7-1.1c-1-1-1-2-1-4.5c0-2.5,0-3.5,1-4.5c0.7-0.7,1.7-1.1,2.7-1.1
				c2,0,3.4,1.2,3.7,3.2h-0.8c-0.3-1.5-1.4-2.5-2.9-2.5c-0.8,0-1.5,0.3-2.1,0.8c-0.8,0.8-0.8,1.7-0.8,4c0,2.3,0.1,3.2,0.8,4
				c0.6,0.6,1.3,0.8,2.1,0.8c1.5,0,2.6-0.9,2.9-2.5h0.8C44.3,76.5,42.9,77.8,41,77.8z"/>
			<path class="st1" d="M53.3,76.7c-0.7,0.7-1.7,1.1-2.7,1.1c-1.1,0-2-0.4-2.7-1.1c-1-1-1-2-1-4.5c0-2.5,0-3.5,1-4.5
				c0.7-0.7,1.7-1.1,2.7-1.1c1,0,2,0.4,2.7,1.1c1,1,1,2,1,4.5C54.4,74.7,54.3,75.7,53.3,76.7z M52.7,68.2c-0.6-0.6-1.3-0.8-2.1-0.8
				s-1.5,0.3-2.1,0.8c-0.8,0.8-0.8,1.7-0.8,4c0,2.3,0.1,3.2,0.8,4c0.6,0.6,1.3,0.8,2.1,0.8s1.5-0.3,2.1-0.8c0.8-0.8,0.8-1.7,0.8-4
				C53.5,69.8,53.5,69,52.7,68.2z"/>
			<path class="st1" d="M60.9,72.6h-3v5.1H57v-11h4.2c1.8,0,3.2,1,3.2,3c0,1.7-1,2.7-2.5,3l2.7,5.1h-1L60.9,72.6z M61.1,67.4h-3.2
				v4.4h3.2c1.4,0,2.4-0.7,2.4-2.2C63.5,68.1,62.5,67.4,61.1,67.4z"/>
			<path class="st1" d="M66.8,66.7h6.7v0.7h-5.8v4.3h5v0.7h-5v4.4h5.8v0.7h-6.7V66.7z"/>
			<path class="st1" d="M83.3,72.6h-3v5.1h-0.8v-11h4.2c1.8,0,3.2,1,3.2,3c0,1.7-1,2.7-2.5,3l2.7,5.1h-1L83.3,72.6z M83.5,67.4h-3.2
				v4.4h3.2c1.4,0,2.4-0.7,2.4-2.2C85.9,68.1,84.9,67.4,83.5,67.4z"/>
			<path class="st1" d="M89.2,66.7h6.7v0.7h-5.8v4.3h5v0.7h-5v4.4h5.8v0.7h-6.7V66.7z"/>
			<path class="st1" d="M100.9,77.8c-1.6,0-2.7-0.4-3.7-1.5l0.6-0.6c1,1,1.8,1.3,3.1,1.3c1.7,0,2.8-0.8,2.8-2.3
				c0-0.7-0.2-1.2-0.6-1.5c-0.4-0.3-0.7-0.5-1.6-0.6l-1.3-0.2c-0.8-0.1-1.5-0.4-2-0.8c-0.6-0.5-0.9-1.2-0.9-2c0-1.9,1.3-3,3.4-3
				c1.4,0,2.2,0.4,3.2,1.2l-0.5,0.5c-0.6-0.6-1.4-1-2.7-1c-1.6,0-2.5,0.9-2.5,2.3c0,0.6,0.2,1.1,0.6,1.4c0.4,0.3,1,0.6,1.6,0.7
				l1.2,0.2c1,0.1,1.5,0.3,2,0.7c0.6,0.5,1,1.3,1,2.1C104.6,76.6,103.2,77.8,100.9,77.8z"/>
			<path class="st1" d="M110.9,73h-3.2v4.7h-0.8v-11h4c1.9,0,3.3,1.1,3.3,3.2C114.3,71.9,112.8,73,110.9,73z M110.8,67.4h-3.1v4.8
				h3.1c1.5,0,2.6-0.8,2.6-2.4S112.4,67.4,110.8,67.4z"/>
			<path class="st1" d="M122.4,76.7c-0.7,0.7-1.7,1.1-2.7,1.1c-1.1,0-2-0.4-2.7-1.1c-1-1-1-2-1-4.5c0-2.5,0-3.5,1-4.5
				c0.7-0.7,1.7-1.1,2.7-1.1c1,0,2,0.4,2.7,1.1c1,1,1,2,1,4.5C123.4,74.7,123.4,75.7,122.4,76.7z M121.8,68.2
				c-0.6-0.6-1.3-0.8-2.1-0.8s-1.5,0.3-2.1,0.8c-0.8,0.8-0.8,1.7-0.8,4c0,2.3,0.1,3.2,0.8,4c0.6,0.6,1.3,0.8,2.1,0.8
				s1.5-0.3,2.1-0.8c0.8-0.8,0.8-1.7,0.8-4C122.6,69.8,122.5,69,121.8,68.2z"/>
			<path class="st1" d="M126.9,68.1v9.6h-0.8v-11h0.8l6.3,9.5v-9.5h0.8v11h-0.8L126.9,68.1z"/>
			<path class="st1" d="M139.9,77.8c-1.6,0-2.7-0.4-3.7-1.5l0.6-0.6c1,1,1.8,1.3,3.1,1.3c1.7,0,2.8-0.8,2.8-2.3
				c0-0.7-0.2-1.2-0.6-1.5c-0.4-0.3-0.7-0.5-1.6-0.6l-1.3-0.2c-0.8-0.1-1.5-0.4-2-0.8c-0.6-0.5-0.9-1.2-0.9-2c0-1.9,1.3-3,3.4-3
				c1.4,0,2.2,0.4,3.2,1.2l-0.5,0.5c-0.6-0.6-1.4-1-2.7-1c-1.6,0-2.5,0.9-2.5,2.3c0,0.6,0.2,1.1,0.6,1.4c0.4,0.3,1,0.6,1.6,0.7
				l1.2,0.2c1,0.1,1.5,0.3,2,0.7c0.6,0.5,1,1.3,1,2.1C143.7,76.6,142.2,77.8,139.9,77.8z"/>
			<path class="st1" d="M146,66.7h0.8v11H146V66.7z"/>
			<path class="st1" d="M154,77.7h-4.2v-11h4c1.8,0,3.2,1.1,3.2,2.9c0,1.2-0.6,2.1-1.7,2.5c1.2,0.4,1.9,1.4,1.9,2.7
				C157.3,76.7,156,77.7,154,77.7z M153.8,67.4h-3.1v4.3h3.1c1.3,0,2.4-0.6,2.4-2.1C156.3,68.1,155.2,67.4,153.8,67.4z M153.9,72.4
				h-3.2v4.5h3.2c1.5,0,2.5-0.8,2.5-2.3C156.4,73.3,155.4,72.4,153.9,72.4z"/>
			<path class="st1" d="M159.9,66.7h0.8v11h-0.8V66.7z"/>
			<path class="st1" d="M163.8,66.7h0.8v10.3h5.8v0.7h-6.7V66.7z"/>
			<path class="st1" d="M172.4,66.7h0.8v11h-0.8V66.7z"/>
			<path class="st1" d="M179.2,77.7h-0.8V67.4h-3.3v-0.7h7.4v0.7h-3.3V77.7z"/>
			<path class="st1" d="M186.8,77.7H186v-4.6l-3.2-6.4h0.9l2.8,5.6l2.7-5.6h0.9l-3.2,6.4V77.7z"/>
		</g>
	</g>
	<g>
		<g>
			<path class="st1" d="M50.7,46.9l-0.5,3.2h2v3.6h-2.6l-0.9,5.6h-4l0.9-5.6h-3.4l-0.9,5.6h-4l0.9-5.6h-2v-3.6h2.6l0.5-3.2h-2.1
				v-3.6h2.6l0.8-5.2h4l-0.8,5.2h3.4l0.8-5.2h4l-0.8,5.2h2v3.6H50.7z M43.2,46.9l-0.5,3.2h3.4l0.5-3.2H43.2z"/>
			<path class="st1" d="M62.1,59.5c-3.4,0-6.6-1.8-6.7-6.2h3.8c0.1,1.9,1.4,2.7,2.9,2.7c1.7,0,2.8-1,2.8-2.9c0-1.7-1.1-2.9-3-2.9
				h-0.6v-3.3H62c1.9,0,2.7-1.2,2.7-2.6c0-1.8-1.2-2.7-2.6-2.7c-1.4,0-2.5,0.9-2.6,2.5h-3.8c0.1-3.8,2.9-6,6.4-6
				c3.7,0,6.4,2.5,6.4,6c0,2.3-1,3.6-2.4,4.3c1.5,0.8,2.7,2.2,2.7,4.8C68.7,57.4,65.7,59.5,62.1,59.5z"/>
		</g>
	</g>
</g>
</svg>
