<?xml version="1.0" encoding="utf-8"?>
<!-- Generator: Adobe Illustrator 21.0.0, SVG Export Plug-In . SVG Version: 6.00 Build 0)  -->
<svg version="1.1" id="Layer_1" xmlns="http://www.w3.org/2000/svg" xmlns:xlink="http://www.w3.org/1999/xlink" x="0px" y="0px"
	 viewBox="0 0 352.8 397.2" style="enable-background:new 0 0 352.8 397.2;" xml:space="preserve">
<style type="text/css">
	.st0{fill:#00B0EA;}
	.st1{fill:#FFFFFF;}
</style>
<rect class="st0" width="352.8" height="397.2"/>
<path class="st1" d="M265.8,281.9l-13.3-19.3c-0.3-0.4-6.6-9.3-20.2-12.2l-19.7-3.6c-0.6-0.1-1.2,0-1.7,0.4l-6.9,4.8l-6.8-4.7
	c-0.5-0.3-1.1-0.5-1.7-0.4l-18.4,3.4c0.8-3.3,2.1-6.5,3.8-9.2l1.2-1.7c0.1-0.1,0.2-0.3,0.2-0.4c0.9-1.1,2.4-2.4,4.4-3.5
	c0,1.6-0.1,3.3-0.3,5c-0.1,1,0.6,1.9,1.6,1.9c0.1,0,0.1,0,0.2,0c0.9,0,1.7-0.7,1.8-1.6c0.2-2.5,0.3-4.7,0.3-6.9
	c0.5-0.2,1-0.3,1.5-0.4c1-0.2,1.7-1.1,1.7-2.2c0-1-0.7-1.9-1.7-2.2l-1.8-0.5c-0.6-6.3-2.2-11.2-3.7-14.5c-0.4-0.9-1.5-1.3-2.4-0.9
	c-0.9,0.4-1.3,1.5-0.9,2.4c1.3,2.8,2.6,6.8,3.2,12l-6.1-1.7c-0.5-0.4-1-0.8-1.5-1.2l-3.5-2.2c-1.7-1-3.6-1.6-5.5-1.6
	c-3.7,0-7,1.8-8.9,4.9l-9.1,11.4c-0.4-0.8-0.9-1.6-1.5-2.7c-5.5-9.9-8.2-23.6-8.2-23.7c-0.1-0.7-0.6-1.3-1.2-1.6
	c-0.6-0.3-1.3-0.3-2,0c-0.6,0.3-13.1,6.3-16.9,20.7c-1.3-0.6-2.5-1.1-3.7-1.7c-15.2-7.1-24.5-18.7-24.5-18.8
	c-0.5-0.6-1.2-0.9-1.9-0.8c-0.7,0.1-1.4,0.5-1.8,1.2c-0.2,0.3-18.4,34.6,15.1,61.2c0.1,0,0.1,0.1,0.2,0.1l1.6,1.1l-22.3,6
	c-0.7,0.2-1.3,0.7-1.5,1.4c-0.3,0.7-0.2,1.4,0.2,2c0.3,0.5,7.3,11.2,20.6,11.2c0.7,0,1.5,0,2.2-0.1c0.2,0,0.4-0.1,0.5-0.1l15.2-5.2
	c2.3,1.2,8.5,3.9,16.7,4.3c-0.1,0.3-0.1,0.6-0.1,0.8c0,0.3,0,0.5,0,0.8l0,0.1c-0.5,8.1,3.2,15.9,10,20.6l1.2,0.8
	c-1,1.5-1.6,3.3-1.6,5.1c0,1.8,0.5,3.6,1.6,5.1c1.7,2.4,4.4,3.9,7.4,3.9c1.8,0,3.6-0.5,5.1-1.6l1.8-1.2c0.1,1.6,0.6,3.2,1.5,4.5
	c1.7,2.4,4.4,3.9,7.4,3.9c1.2,0,2.4-0.3,3.5-0.8c0,1.7,0.6,3.4,1.6,4.9c1.5,2.1,3.8,3.5,6.3,3.8c-0.3,0.9-0.5,1.8-0.5,2.8
	c0,1.8,0.6,3.6,1.6,5.1c1.7,2.4,4.4,3.9,7.4,3.9c1.8,0,3.6-0.6,5.1-1.6l12.3-8.5c0.8-0.5,1.5-1.2,2-1.9l3.4,2.3
	c1.5,1,3.2,1.6,5.1,1.6c2.9,0,5.7-1.4,7.4-3.9c0.9-1.3,1.4-2.8,1.5-4.4c1.2,0.5,2.5,0.8,3.8,0.8c3,0,5.7-1.4,7.4-3.9
	c1-1.5,1.5-3.2,1.6-4.9c1.1,0.5,2.3,0.8,3.5,0.8c3,0,5.7-1.5,7.4-3.9c1-1.5,1.6-3.2,1.6-4.9c1.1,0.4,2.2,0.7,3.4,0.7
	c2.9,0,5.7-1.5,7.4-3.9c2.2-3.2,2.1-7.2-0.1-10.2C271.1,300.9,271.4,290,265.8,281.9z M171.3,228.6c1.6,0,3,1.3,3,3
	c0,1.6-1.3,2.9-3,2.9c-1.6,0-2.9-1.3-2.9-2.9C168.4,229.9,169.7,228.6,171.3,228.6z M137.1,286.1c-0.4-0.1-0.6-0.3-0.9-0.5
	c-0.4-0.4-0.6-1-0.5-1.6c0.2-1,1.2-1.6,2.1-1.3c0.1,0,4.4,0.9,10.1-0.2c0.3-0.1,0.6-0.1,0.9-0.2c0,0,0,0,0,0
	c0.9-0.2,1.8-0.5,2.7-0.8l0.2-0.1c0.1-0.1,0.2-0.1,0.3-0.1c0,0,0,0,0,0c0.7-0.2,1.3-0.4,2-0.7c3.6-1.5,6.7-4.1,8.9-7.3
	c0.5-0.7,1-1.5,1.4-2.3c0.1-0.2,0.2-0.4,0.4-0.5c0.4-0.3,0.8-0.5,1.3-0.5c0.2,0,0.5,0.1,0.7,0.2c0.1,0.1,0.2,0.2,0.3,0.3
	c0.3,0.2,0.5,0.5,0.6,0.8c0.1,0.4,0.1,0.9-0.1,1.4c-1.9,3.9-4.8,7.1-8.4,9.4c-1.1,0.7-2.2,1.4-3.4,1.9c-0.8,0.3-1.5,0.6-2.3,0.9l0,0
	l-0.1,0.1c-0.1,0.1-0.2,0.1-0.3,0.1c-4.1,1.5-7.8,1.9-10.7,1.9C139.2,286.5,137.2,286.1,137.1,286.1z M159.5,323.6
	c-2,1.4-4.9,0.8-6.3-1.1c-0.5-0.7-0.8-1.6-0.8-2.5c0-1.5,0.7-2.9,1.9-3.7l19.5-13.5c0.8-0.5,1.6-0.8,2.5-0.8c1.5,0,2.8,0.7,3.7,1.9
	c1.4,2,0.9,4.8-1.1,6.2L159.5,323.6z M175.3,329.2c-2,1.3-4.9,0.8-6.2-1.2c-0.5-0.8-0.8-1.6-0.8-2.5c0-1.5,0.7-2.8,1.9-3.7
	l19.5-13.5c0.8-0.5,1.6-0.8,2.5-0.8c1.5,0,2.9,0.7,3.7,1.9c1.4,2,0.9,4.8-1.1,6.2L175.3,329.2z M181.6,336.1
	c-0.5-0.8-0.8-1.6-0.8-2.5c0-1.5,0.7-2.9,1.9-3.7l19.5-13.5c0.8-0.5,1.6-0.8,2.6-0.8c1.5,0,2.8,0.7,3.7,1.9c0.8,1.2,1,2.7,0.5,4.1
	c-0.3,0.9-0.9,1.6-1.7,2.1l-19.5,13.5C185.8,338.6,182.9,338,181.6,336.1z M209.2,338.2c-0.3,0.9-0.9,1.6-1.6,2.2l-12.3,8.5
	c-2,1.4-4.9,0.8-6.2-1.1c-0.5-0.8-0.8-1.6-0.8-2.5c0-1.5,0.7-2.9,2-3.7l12.3-8.5c0.7-0.5,1.6-0.8,2.5-0.8c1.5,0,2.8,0.7,3.7,2
	C209.5,335.4,209.7,336.8,209.2,338.2z M224.2,339.7c-1.4,2-4.3,2.5-6.3,1.1l-4.2-2.8c0.3-2.2-0.2-4.5-1.5-6.4c-1-1.4-2.4-2.5-4-3.2
	l1.4-1c0.8-0.5,1.5-1.2,2-1.9l11.2,7.9c1,0.7,1.7,1.7,1.9,2.9C225.2,337.5,224.9,338.7,224.2,339.7z M261.8,316.2
	c-1.4,2-4.1,2.6-6.3,1.1l-4.6-2.9c0,0-0.1,0-0.1-0.1v0l-29.3-19.9c-1-0.7-2.4-0.4-3.1,0.6c-0.7,1-0.4,2.4,0.6,3.1l28.2,19.1
	c0.1,0.1,0.1,0.1,0.2,0.2l0.9,0.6h0c2,1.4,2.5,4.2,1.1,6.2c-1.3,2-4.1,2.6-6.3,1.1L238,322c-0.1,0-0.1,0-0.2-0.1l-25.1-17.4
	c-1-0.7-2.4-0.4-3.1,0.6c-0.7,1-0.5,2.4,0.6,3.1l25.4,17.5l0.3,0.2c2,1.4,2.5,4.2,1.1,6.2c-0.8,1.2-2.2,1.9-3.7,1.9
	c-0.9,0-1.8-0.3-2.5-0.8l-5.4-4c-0.1,0-0.2-0.1-0.2-0.1l-11.4-8c0.3-2.2-0.2-4.5-1.5-6.3c-1.7-2.4-4.4-3.9-7.4-3.9
	c-1.2,0-2.4,0.3-3.5,0.7c0-1.7-0.5-3.4-1.6-4.9c-1.7-2.4-4.4-3.9-7.4-3.9c-1.8,0-3.6,0.6-5.1,1.6l-1.8,1.2c-0.1-1.6-0.6-3.2-1.5-4.6
	c-1.7-2.4-4.4-3.9-7.4-3.9c-1.8,0-3.6,0.6-5.1,1.6l-18.3,12.6l-2.2-1.4c-5.5-3.8-8.5-10.2-8-16.8c0-0.2,0-0.4,0-0.6l0-0.1
	c0.1-0.4,0.2-0.7,0.2-1.1c0,0,0.1,0,0.1,0l0.3-0.1c18-0.1,32.7-14.9,32.7-32.8l0.1-2c0-0.6,0.1-1.1,0.2-1.7c0,0,0.1,0,0.1,0
	c0.1,0,0.2-0.1,0.3-0.1l18.7-3.4l4.7,3.2l-19.1,13.1c-0.3,0.2-0.6,0.6-0.8,1c-0.4,0.7-0.3,1.6,0.2,2.3c2.7,3.9,6.8,6.6,11.5,7.4
	c4.7,0.9,9.4-0.2,13.4-2.9l2.7-1.9l1.4,1c1.1,1.1,2.4,2,4,2.7l47.3,32.6c0.1,0.1,0.2,0.1,0.3,0.2
	C262.7,311.7,263.1,314.3,261.8,316.2z M262,305.4l-38-26.2c3.1-0.2,6.2-0.9,9.1-2.1c1.1-0.5,1.6-1.8,1.1-3c-0.5-1.1-1.8-1.6-3-1.1
	c-5.1,2.3-11.3,2.4-15.7,0.4l-3.3-2.3c-0.5-0.6-1-1.2-1.3-1.9c-0.2-0.6-0.8-1-1.4-1.2c-0.6-0.2-1.3-0.1-1.8,0.1
	c-0.1,0.1-0.2,0.1-0.3,0.2l-4.8,3.4c-2.9,2-6.5,2.8-10,2.1c-2.8-0.5-5.3-1.9-7.2-3.9l27.2-18.8l18.7,3.4
	c11.7,2.5,17.3,10.2,17.4,10.3l13.3,19.3C266.5,290.8,266.4,299.4,262,305.4z M176.2,221c-2.3-1.6-3.5-4.2-3.2-6.5
	c2-1.2,4.9-1.1,7.2,0.4c2.3,1.6,3.5,4.2,3.2,6.5C181.4,222.6,178.5,222.5,176.2,221 M198.3,212.8c0.7,2.3,0,5-2,6.9
	c-2,1.9-4.8,2.5-7.1,1.6c-0.7-2.3,0-5,2-6.9C193.3,212.5,196.1,211.9,198.3,212.8 M192.6,208.9c-1.1,2.6-3.4,4.3-5.8,4.4
	c-1.6-1.8-2.1-4.6-1-7.2c1.1-2.6,3.4-4.3,5.8-4.4C193.2,203.5,193.7,206.3,192.6,208.9"/>
<g>
	<g>
		<g>
			<path class="st1" d="M45.1,100.9h-4v7.9h-4.1v-21h8.2c4.3,0,6.9,3,6.9,6.6C52,97.9,49.4,100.9,45.1,100.9z M44.9,91.4H41v5.8h3.8
				c1.9,0,3-1.2,3-2.9C47.9,92.6,46.7,91.4,44.9,91.4z"/>
			<path class="st1" d="M66,108.8l-4.1-8.4h-3v8.4h-4.1v-21h8.2c4.3,0,6.8,2.9,6.8,6.4c0,3-1.8,4.8-3.8,5.5l4.7,9.1H66z M62.9,91.4
				H59V97h3.9c1.8,0,3-1.2,3-2.8C65.8,92.6,64.7,91.4,62.9,91.4z"/>
			<path class="st1" d="M73.6,108.8v-21h13.9v3.7h-9.7v4.9H86v3.7h-8.3v5.1h9.7v3.7H73.6z"/>
			<path class="st1" d="M98.5,108.8h-3.1l-6.9-21h4.3l4.2,13.7l4.2-13.7h4.3L98.5,108.8z"/>
			<path class="st1" d="M107.5,108.8v-21h13.9v3.7h-9.7v4.9h8.3v3.7h-8.3v5.1h9.7v3.7H107.5z"/>
			<path class="st1" d="M137.2,108.8l-8.3-12.9v12.9h-4.1v-21h3.7l8.3,12.9V87.7h4.1v21H137.2z"/>
			<path class="st1" d="M153.2,91.4v17.4h-4.1V91.4h-5.5v-3.7h15.1v3.7H153.2z"/>
			<path class="st1" d="M179.7,108.8l-1.2-3.7H171l-1.3,3.7h-4.3l7.7-21h3.2l7.7,21H179.7z M174.8,93.9l-2.7,7.7h5.2L174.8,93.9z"/>
			<path class="st1" d="M198.4,108.8l-8.3-12.9v12.9H186v-21h3.7l8.3,12.9V87.7h4.1v21H198.4z"/>
			<path class="st1" d="M219.5,106.8c-1.4,1.4-3.4,2-5.6,2h-7.6v-21h7.6c2.2,0,4.2,0.6,5.6,2c2.4,2.4,2.1,5.3,2.1,8.4
				C221.7,101.3,221.9,104.4,219.5,106.8z M216.7,92.7c-0.7-0.9-1.7-1.3-3.1-1.3h-3.1v13.7h3.1c1.4,0,2.4-0.4,3.1-1.3
				c0.8-0.9,0.9-2.5,0.9-5.6S217.4,93.6,216.7,92.7z"/>
			<path class="st1" d="M36.9,139.1v-21h13.9v3.7H41v4.9h8.3v3.7H41v5.1h9.7v3.7H36.9z"/>
			<path class="st1" d="M66.6,139.1l-8.3-12.9v12.9h-4.1v-21h3.7l8.3,12.9V118h4.1v21H66.6z"/>
			<path class="st1" d="M87.8,137.1c-1.4,1.4-3.4,2-5.6,2h-7.6v-21h7.6c2.2,0,4.2,0.6,5.6,2c2.4,2.4,2.1,5.3,2.1,8.4
				C89.9,131.6,90.1,134.7,87.8,137.1z M84.9,123c-0.7-0.9-1.7-1.3-3.1-1.3h-3.1v13.7h3.1c1.4,0,2.4-0.4,3.1-1.3
				c0.8-0.9,0.9-2.5,0.9-5.6C85.8,125.3,85.7,123.9,84.9,123z"/>
			<path class="st1" d="M106.8,139.2c-2.2,0-4.1-0.8-5.7-2.3c-0.9-0.9-1.5-2-1.7-3.2s-0.4-2.9-0.4-5.2c0-2.3,0.1-4,0.4-5.2
				c0.2-1.2,0.8-2.2,1.7-3.2c1.5-1.5,3.4-2.3,5.7-2.3c4,0,7,2.4,7.7,6.6h-4.2c-0.4-1.8-1.6-3-3.5-3c-1.1,0-2,0.4-2.6,1.1
				c-0.9,0.9-1,1.9-1,5.9c0,4.1,0.2,5,1,5.9c0.6,0.7,1.5,1.1,2.6,1.1c2,0,3.1-1.2,3.5-3h4.2C113.8,136.9,110.8,139.2,106.8,139.2z"
				/>
			<path class="st1" d="M129.3,136.9c-1.5,1.5-3.3,2.3-5.7,2.3s-4.2-0.8-5.7-2.3c-2.1-2.1-2.1-4.8-2.1-8.4c0-3.6-0.1-6.3,2.1-8.4
				c1.5-1.5,3.3-2.3,5.7-2.3s4.2,0.8,5.7,2.3c2.1,2.1,2.1,4.8,2.1,8.4C131.4,132.2,131.4,134.8,129.3,136.9z M126.2,122.6
				c-0.6-0.7-1.5-1.1-2.6-1.1s-2.1,0.4-2.7,1.1c-0.8,0.9-1,1.9-1,5.9c0,4,0.2,5,1,5.9c0.6,0.7,1.5,1.1,2.7,1.1s2-0.4,2.6-1.1
				c0.8-0.9,1-1.9,1-5.9C127.3,124.5,127,123.5,126.2,122.6z"/>
			<path class="st1" d="M147.4,139.1l-8.3-12.9v12.9H135v-21h3.7l8.3,12.9V118h4.1v21H147.4z"/>
			<path class="st1" d="M159.5,121.7v5.2h8.3v3.7h-8.3v8.5h-4.1v-21h13.9v3.7H159.5z"/>
			<path class="st1" d="M172.2,139.1v-21h4.1v17.4h9.5v3.7H172.2z"/>
			<path class="st1" d="M188.6,139.1v-21h4.1v21H188.6z"/>
			<path class="st1" d="M204.1,139.2c-2.2,0-4.1-0.8-5.7-2.3c-0.9-0.9-1.5-2-1.7-3.2s-0.4-2.9-0.4-5.2c0-2.3,0.1-4,0.4-5.2
				c0.2-1.2,0.8-2.2,1.7-3.2c1.5-1.5,3.4-2.3,5.7-2.3c4,0,7,2.4,7.7,6.6h-4.2c-0.4-1.8-1.6-3-3.5-3c-1.1,0-2,0.4-2.6,1.1
				c-0.9,0.9-1,1.9-1,5.9c0,4.1,0.2,5,1,5.9c0.6,0.7,1.5,1.1,2.6,1.1c2,0,3.1-1.2,3.5-3h4.2C211.1,136.9,208.1,139.2,204.1,139.2z"
				/>
			<path class="st1" d="M222.2,121.7v17.4h-4.1v-17.4h-5.5V118h15.1v3.7H222.2z"/>
		</g>
	</g>
	<g>
		<g>
			<path class="st1" d="M41,77.8c-1.1,0-2-0.4-2.7-1.1c-1-1-1-2-1-4.5c0-2.5,0-3.5,1-4.5c0.7-0.7,1.7-1.1,2.7-1.1
				c2,0,3.4,1.2,3.7,3.2h-0.8c-0.3-1.5-1.4-2.5-2.9-2.5c-0.8,0-1.5,0.3-2.1,0.8c-0.8,0.8-0.8,1.7-0.8,4c0,2.3,0.1,3.2,0.8,4
				c0.6,0.6,1.3,0.8,2.1,0.8c1.5,0,2.6-0.9,2.9-2.5h0.8C44.3,76.5,42.9,77.8,41,77.8z"/>
			<path class="st1" d="M53.3,76.7c-0.7,0.7-1.7,1.1-2.7,1.1c-1.1,0-2-0.4-2.7-1.1c-1-1-1-2-1-4.5c0-2.5,0-3.5,1-4.5
				c0.7-0.7,1.7-1.1,2.7-1.1c1,0,2,0.4,2.7,1.1c1,1,1,2,1,4.5C54.4,74.7,54.3,75.7,53.3,76.7z M52.7,68.2c-0.6-0.6-1.3-0.8-2.1-0.8
				s-1.5,0.3-2.1,0.8c-0.8,0.8-0.8,1.7-0.8,4c0,2.3,0.1,3.2,0.8,4c0.6,0.6,1.3,0.8,2.1,0.8s1.5-0.3,2.1-0.8c0.8-0.8,0.8-1.7,0.8-4
				C53.5,69.8,53.5,69,52.7,68.2z"/>
			<path class="st1" d="M60.9,72.6h-3v5.1H57v-11h4.2c1.8,0,3.2,1,3.2,2.9c0,1.7-1,2.7-2.5,3l2.7,5.1h-1L60.9,72.6z M61.1,67.4h-3.2
				v4.4h3.2c1.4,0,2.4-0.7,2.4-2.2C63.5,68.1,62.5,67.4,61.1,67.4z"/>
			<path class="st1" d="M66.8,66.7h6.7v0.7h-5.8v4.3h5v0.7h-5v4.4h5.8v0.7h-6.7V66.7z"/>
			<path class="st1" d="M83.3,72.6h-3v5.1h-0.8v-11h4.2c1.8,0,3.2,1,3.2,2.9c0,1.7-1,2.7-2.5,3l2.7,5.1h-1L83.3,72.6z M83.5,67.4
				h-3.2v4.4h3.2c1.4,0,2.4-0.7,2.4-2.2C85.9,68.1,84.9,67.4,83.5,67.4z"/>
			<path class="st1" d="M89.2,66.7h6.7v0.7h-5.8v4.3h5v0.7h-5v4.4h5.8v0.7h-6.7V66.7z"/>
			<path class="st1" d="M100.9,77.8c-1.6,0-2.7-0.4-3.7-1.5l0.6-0.6c1,1,1.8,1.3,3.1,1.3c1.7,0,2.8-0.8,2.8-2.3
				c0-0.7-0.2-1.2-0.6-1.5c-0.4-0.3-0.7-0.5-1.6-0.6l-1.3-0.2c-0.8-0.1-1.5-0.4-2-0.8c-0.6-0.5-0.9-1.2-0.9-2c0-1.9,1.3-3,3.4-3
				c1.4,0,2.2,0.4,3.2,1.2l-0.5,0.5c-0.6-0.6-1.4-1-2.7-1c-1.6,0-2.5,0.9-2.5,2.3c0,0.6,0.2,1.1,0.6,1.4c0.4,0.3,1,0.6,1.6,0.7
				l1.2,0.2c1,0.1,1.5,0.3,2,0.7c0.6,0.5,1,1.3,1,2.1C104.6,76.6,103.2,77.8,100.9,77.8z"/>
			<path class="st1" d="M110.9,73h-3.2v4.7h-0.8v-11h4c1.9,0,3.3,1.1,3.3,3.2C114.3,71.9,112.8,73,110.9,73z M110.8,67.4h-3.1v4.8
				h3.1c1.5,0,2.6-0.8,2.6-2.4S112.4,67.4,110.8,67.4z"/>
			<path class="st1" d="M122.4,76.7c-0.7,0.7-1.7,1.1-2.7,1.1c-1.1,0-2-0.4-2.7-1.1c-1-1-1-2-1-4.5c0-2.5,0-3.5,1-4.5
				c0.7-0.7,1.7-1.1,2.7-1.1c1,0,2,0.4,2.7,1.1c1,1,1,2,1,4.5C123.4,74.7,123.4,75.7,122.4,76.7z M121.8,68.2
				c-0.6-0.6-1.3-0.8-2.1-0.8s-1.5,0.3-2.1,0.8c-0.8,0.8-0.8,1.7-0.8,4c0,2.3,0.1,3.2,0.8,4c0.6,0.6,1.3,0.8,2.1,0.8
				s1.5-0.3,2.1-0.8c0.8-0.8,0.8-1.7,0.8-4C122.6,69.8,122.5,69,121.8,68.2z"/>
			<path class="st1" d="M126.9,68.1v9.6h-0.8v-11h0.8l6.3,9.5v-9.5h0.8v11h-0.8L126.9,68.1z"/>
			<path class="st1" d="M139.9,77.8c-1.6,0-2.7-0.4-3.7-1.5l0.6-0.6c1,1,1.8,1.3,3.1,1.3c1.7,0,2.8-0.8,2.8-2.3
				c0-0.7-0.2-1.2-0.6-1.5c-0.4-0.3-0.7-0.5-1.6-0.6l-1.3-0.2c-0.8-0.1-1.5-0.4-2-0.8c-0.6-0.5-0.9-1.2-0.9-2c0-1.9,1.3-3,3.4-3
				c1.4,0,2.2,0.4,3.2,1.2l-0.5,0.5c-0.6-0.6-1.4-1-2.7-1c-1.6,0-2.5,0.9-2.5,2.3c0,0.6,0.2,1.1,0.6,1.4c0.4,0.3,1,0.6,1.6,0.7
				l1.2,0.2c1,0.1,1.5,0.3,2,0.7c0.6,0.5,1,1.3,1,2.1C143.7,76.6,142.2,77.8,139.9,77.8z"/>
			<path class="st1" d="M146,66.7h0.8v11H146V66.7z"/>
			<path class="st1" d="M154,77.7h-4.2v-11h4c1.8,0,3.2,1.1,3.2,2.9c0,1.2-0.6,2.1-1.7,2.5c1.2,0.4,1.9,1.4,1.9,2.7
				C157.3,76.7,156,77.7,154,77.7z M153.8,67.4h-3.1v4.3h3.1c1.3,0,2.4-0.6,2.4-2.1C156.3,68.1,155.2,67.4,153.8,67.4z M153.9,72.4
				h-3.2v4.5h3.2c1.5,0,2.5-0.8,2.5-2.3C156.4,73.3,155.4,72.4,153.9,72.4z"/>
			<path class="st1" d="M159.9,66.7h0.8v11h-0.8V66.7z"/>
			<path class="st1" d="M163.8,66.7h0.8v10.3h5.8v0.7h-6.7V66.7z"/>
			<path class="st1" d="M172.4,66.7h0.8v11h-0.8V66.7z"/>
			<path class="st1" d="M179.2,77.7h-0.8V67.4H175v-0.7h7.4v0.7h-3.3V77.7z"/>
			<path class="st1" d="M186.8,77.7H186v-4.6l-3.2-6.4h0.9l2.8,5.6l2.7-5.6h0.9l-3.2,6.4V77.7z"/>
		</g>
	</g>
	<g>
		<g>
			<path class="st1" d="M50.7,46.9l-0.5,3.2h2v3.6h-2.6l-0.9,5.6h-4l0.9-5.6h-3.4l-0.9,5.6h-4l0.9-5.6h-2v-3.6h2.6l0.5-3.2h-2.1
				v-3.6h2.6l0.8-5.2h4l-0.8,5.2h3.4l0.8-5.2h4l-0.8,5.2h2v3.6H50.7z M43.2,46.9l-0.5,3.2h3.4l0.5-3.2H43.2z"/>
			<path class="st1" d="M61.5,59.3V42.4l-4.3,3.7V42l4.3-3.7h3.8v21H61.5z"/>
		</g>
	</g>
</g>
</svg>
