<?xml version="1.0" encoding="utf-8"?>
<!-- Generator: Adobe Illustrator 21.0.0, SVG Export Plug-In . SVG Version: 6.00 Build 0)  -->
<svg version="1.1" id="Layer_1" xmlns="http://www.w3.org/2000/svg" xmlns:xlink="http://www.w3.org/1999/xlink" x="0px" y="0px"
	 viewBox="0 0 352.8 397.2" style="enable-background:new 0 0 352.8 397.2;" xml:space="preserve">
<style type="text/css">
	.st0{fill:#51AD32;}
	.st1{fill:#FFFFFF;}
</style>
<rect class="st0" width="352.8" height="397.2"/>
<path class="st1" d="M255.8,338.5c-0.3-0.2-32.7-24.3-63.3-59.1c-0.5-0.5-1.2-0.8-1.9-0.8h-0.4c0.1-2.6,0.1-5.3,0.1-8.1
	c0-1.4-1.1-2.5-2.5-2.5c-1.4,0-2.5,1.1-2.5,2.5c0,2.8,0,5.5-0.1,8.1H185c-0.7,0-1.4,0.3-1.9,0.8c-7.1,8-14.2,15.4-21,22.2v-56.3
	c0-0.4-0.1-0.7-0.2-1c0.2-0.4,0.3-0.7,0.3-1.2c0-7.4-6-13.4-13.4-13.4h-4.8l14.1-9.7c0.7-0.5,1.1-1.2,1.1-2.1v-21.4
	c0-0.9-0.5-1.8-1.3-2.2c-0.8-0.4-1.8-0.4-2.6,0.2l-17.2,11.9v-12.2c0-1.4-1.1-2.5-2.5-2.5h-10.9c-1.4,0-2.5,1.1-2.5,2.5v12.2
	l-17.3-12c-0.8-0.5-1.8-0.6-2.6-0.2c-0.8,0.4-1.3,1.3-1.3,2.2v21.4c0,0.8,0.4,1.6,1.1,2.1l14.1,9.8h-6.6c-7.4,0-13.4,6-13.4,13.4
	c0,0.5,0.2,1,0.5,1.4c-0.1,0.3-0.2,0.5-0.2,0.8v56.4c-0.2,0.3-0.3,0.7-0.3,1.1c0,1.2,0.1,2.4,0.2,3.8c1.7,14.9,13.2,26.5,27.5,28.8
	c-2.4,1.9-3.9,3-3.9,3c-0.9,0.6-1.2,1.8-0.9,2.8c0.3,1,1.3,1.7,2.4,1.7h13.3v18.7c0,1.2,0.9,2.3,2.1,2.5c0.2,0,1.2,0.2,3,0.2
	c4.9,0,15-1.2,25-9.8c9.5-8.1,16.3-20.6,20.6-37.1v44.3c0,1.4,1.1,2.5,2.5,2.5l50.9,0.1h0c0.7,0,1.3-0.3,1.8-0.7
	c0.5-0.5,0.7-1.1,0.7-1.8L241,343h13.3c1.1,0,2-0.7,2.4-1.7C257,340.2,256.6,339.1,255.8,338.5 M238.5,338c-0.7,0-1.3,0.3-1.8,0.7
	c-0.5,0.5-0.7,1.1-0.7,1.8l0.2,18.8l-45.9-0.1v-74.7C213,310,236.4,329.6,247,338H238.5z M161.6,350.6c-8.9,7.7-17.8,8.7-21.8,8.7
	h-0.2v-18.9c0-1.4-1.1-2.5-2.5-2.5h-8.5c10.5-8.4,33.7-27.8,56.3-53.1C182.7,324.1,171.3,342.3,161.6,350.6 M113.8,296.8v-20.4
	c0-1.4-1.1-2.5-2.5-2.5c-1.4,0-2.5,1.1-2.5,2.5l0,20.3c0,0.3-0.1,3.3,0.3,7.1h-7.8v-56.1h55.8v56.1h-43
	C113.7,300,113.8,297,113.8,296.8 M108.5,305.4l6.3-0.3c0.9,5.8,3.7,13.1,12,14c1.7,0.2,3,1.7,2.8,3.4c-0.2,1.6-1.5,2.8-3.1,2.8
	c-0.1,0-0.2,0-0.3,0C114.4,324,109.8,314.1,108.5,305.4 M138.6,211.9l15.4-10.7v15.4l-15.4,10.7V211.9z M127.1,196.6h5.9v32.1h-5.9
	V196.6z M105.9,201.1l15.4,10.7v15.3l-15.4-10.7V201.1z M223.3,327.1c0.4,0,0.8,0.4,0.8,0.8v23.7c0,0.4-0.4,0.8-0.8,0.8h-5.8
	c-0.4,0-0.8-0.3-0.8-0.8V343h-7.2v8.6c0,0.4-0.3,0.8-0.8,0.8h-5.8c-0.4,0-0.8-0.3-0.8-0.8v-23.7c0-0.4,0.4-0.8,0.8-0.8h5.8
	c0.4,0,0.8,0.4,0.8,0.8v8.3h7.2v-8.3c0-0.4,0.3-0.8,0.8-0.8H223.3"/>
<g>
	<g>
		<g>
			<path class="st1" d="M48.1,108.8l-4.1-8.4h-3v8.4h-4.1v-21h8.2c4.3,0,6.8,2.9,6.8,6.4c0,3-1.8,4.8-3.8,5.5l4.7,9.1H48.1z
				 M44.9,91.4H41V97h3.9c1.8,0,3-1.2,3-2.8C47.9,92.6,46.7,91.4,44.9,91.4z"/>
			<path class="st1" d="M55.6,108.8v-21h13.9v3.7h-9.7v4.9h8.3v3.7h-8.3v5.1h9.7v3.7H55.6z"/>
			<path class="st1" d="M78.7,108.9c-3.2,0-5.6-0.7-7.7-2.8l2.7-2.7c1.3,1.3,3.1,1.8,5.1,1.8c2.4,0,3.7-0.9,3.7-2.6
				c0-0.7-0.2-1.4-0.6-1.8c-0.4-0.4-0.9-0.6-1.9-0.7l-2.5-0.4c-1.8-0.3-3.1-0.8-4.1-1.7c-1-1-1.5-2.4-1.5-4.1c0-3.8,2.8-6.4,7.3-6.4
				c2.9,0,5,0.7,6.8,2.5l-2.6,2.6c-1.3-1.3-2.9-1.4-4.3-1.4c-2.2,0-3.2,1.2-3.2,2.7c0,0.5,0.2,1.1,0.6,1.5c0.4,0.4,1.1,0.7,1.9,0.8
				l2.5,0.4c1.9,0.3,3.1,0.8,4,1.6c1.1,1.1,1.6,2.6,1.6,4.5C86.5,106.6,83.1,108.9,78.7,108.9z"/>
			<path class="st1" d="M98,100.9h-4v7.9h-4.1v-21H98c4.3,0,6.9,3,6.9,6.6C104.9,97.9,102.3,100.9,98,100.9z M97.7,91.4h-3.8v5.8
				h3.8c1.9,0,3-1.2,3-2.9C100.8,92.6,99.6,91.4,97.7,91.4z"/>
			<path class="st1" d="M107.8,108.8v-21h13.9v3.7h-9.7v4.9h8.3v3.7h-8.3v5.1h9.7v3.7H107.8z"/>
			<path class="st1" d="M132.1,108.9c-2.2,0-4.1-0.8-5.7-2.3c-0.9-0.9-1.5-2-1.7-3.2s-0.4-2.9-0.4-5.2s0.1-4,0.4-5.2
				c0.2-1.2,0.8-2.2,1.7-3.2c1.5-1.5,3.4-2.3,5.7-2.3c4,0,7,2.4,7.7,6.6h-4.2c-0.4-1.8-1.6-3-3.5-3c-1.1,0-2,0.4-2.6,1.1
				c-0.9,0.9-1,1.9-1,5.9s0.2,5,1,5.9c0.6,0.7,1.5,1.1,2.6,1.1c2,0,3.1-1.2,3.5-3h4.2C139.1,106.6,136.1,108.9,132.1,108.9z"/>
			<path class="st1" d="M150.2,91.4v17.4h-4.1V91.4h-5.5v-3.7h15.1v3.7H150.2z"/>
			<path class="st1" d="M175.9,108.8l-4.1-8.4h-3v8.4h-4.1v-21h8.2c4.3,0,6.8,2.9,6.8,6.4c0,3-1.8,4.8-3.8,5.5l4.7,9.1H175.9z
				 M172.7,91.4h-3.9V97h3.9c1.8,0,3-1.2,3-2.8C175.7,92.6,174.5,91.4,172.7,91.4z"/>
			<path class="st1" d="M190.9,108.9c-4.3,0-7.7-2.9-7.7-7.4V87.7h4.1v13.7c0,2.4,1.4,3.9,3.6,3.9s3.7-1.4,3.7-3.9V87.7h4.1v13.8
				C198.6,106,195.2,108.9,190.9,108.9z"/>
			<path class="st1" d="M202.6,108.8v-21h4.1v17.4h9.5v3.7H202.6z"/>
			<path class="st1" d="M219,108.8v-21h13.9v3.7h-9.7v4.9h8.3v3.7h-8.3v5.1h9.7v3.7H219z"/>
			<path class="st1" d="M242.1,108.9c-3.2,0-5.6-0.7-7.7-2.8l2.7-2.7c1.3,1.3,3.1,1.8,5.1,1.8c2.4,0,3.7-0.9,3.7-2.6
				c0-0.7-0.2-1.4-0.7-1.8c-0.4-0.4-0.9-0.6-1.9-0.7l-2.5-0.4c-1.8-0.3-3.1-0.8-4.1-1.7c-1-1-1.5-2.4-1.5-4.1c0-3.8,2.8-6.4,7.3-6.4
				c2.9,0,5,0.7,6.8,2.5l-2.6,2.6c-1.3-1.3-2.9-1.4-4.3-1.4c-2.2,0-3.3,1.2-3.3,2.7c0,0.5,0.2,1.1,0.6,1.5c0.4,0.4,1.1,0.7,1.9,0.8
				l2.5,0.4c1.9,0.3,3.1,0.8,4,1.6c1.1,1.1,1.6,2.6,1.6,4.5C249.9,106.6,246.5,108.9,242.1,108.9z"/>
			<path class="st1" d="M49.6,136.9c-1.5,1.5-3.3,2.3-5.7,2.3s-4.2-0.8-5.7-2.3c-2.1-2.1-2.1-4.8-2.1-8.4c0-3.6-0.1-6.3,2.1-8.4
				c1.5-1.5,3.3-2.3,5.7-2.3s4.2,0.8,5.7,2.3c2.1,2.1,2.1,4.8,2.1,8.4C51.7,132.2,51.8,134.8,49.6,136.9z M46.6,122.6
				c-0.6-0.7-1.5-1.1-2.6-1.1s-2.1,0.4-2.7,1.1c-0.8,0.9-1,1.9-1,5.9c0,4,0.2,5,1,5.9c0.6,0.7,1.5,1.1,2.7,1.1s2-0.4,2.6-1.1
				c0.8-0.9,1-1.9,1-5.9C47.6,124.5,47.4,123.5,46.6,122.6z"/>
			<path class="st1" d="M59.5,121.7v5.2h8.3v3.7h-8.3v8.5h-4.1v-21h13.9v3.7H59.5z"/>
			<path class="st1" d="M96.4,139.1H93l-3.9-12.8l-3.9,12.8h-3.4l-5.6-21h4.3l3.3,13.3l3.8-13.3h3.1l3.8,13.3l3.3-13.3h4.3
				L96.4,139.1z"/>
			<path class="st1" d="M115.6,139.1l-1.2-3.7h-7.5l-1.3,3.7h-4.3l7.7-21h3.2l7.7,21H115.6z M110.7,124.2l-2.7,7.7h5.2L110.7,124.2z
				"/>
			<path class="st1" d="M133,139.1l-4.1-8.4h-3v8.4h-4.1v-21h8.2c4.3,0,6.8,2.9,6.8,6.4c0,3-1.8,4.8-3.8,5.5l4.7,9.1H133z
				 M129.8,121.7H126v5.6h3.9c1.8,0,3-1.2,3-2.8C132.8,122.8,131.6,121.7,129.8,121.7z"/>
		</g>
	</g>
	<g>
		<g>
			<path class="st1" d="M41,77.8c-1.1,0-2-0.4-2.7-1.1c-1-1-1-2-1-4.5c0-2.5,0-3.5,1-4.5c0.7-0.7,1.7-1.1,2.7-1.1
				c2,0,3.4,1.2,3.7,3.2h-0.8c-0.3-1.5-1.4-2.5-2.9-2.5c-0.8,0-1.5,0.3-2.1,0.8c-0.8,0.8-0.8,1.7-0.8,4c0,2.3,0.1,3.2,0.8,4
				c0.6,0.6,1.3,0.8,2.1,0.8c1.5,0,2.6-0.9,2.9-2.5h0.8C44.3,76.5,42.9,77.8,41,77.8z"/>
			<path class="st1" d="M53.3,76.7c-0.7,0.7-1.7,1.1-2.7,1.1c-1.1,0-2-0.4-2.7-1.1c-1-1-1-2-1-4.5c0-2.5,0-3.5,1-4.5
				c0.7-0.7,1.7-1.1,2.7-1.1c1,0,2,0.4,2.7,1.1c1,1,1,2,1,4.5C54.4,74.7,54.3,75.7,53.3,76.7z M52.7,68.2c-0.6-0.6-1.3-0.8-2.1-0.8
				s-1.5,0.3-2.1,0.8c-0.8,0.8-0.8,1.7-0.8,4c0,2.3,0.1,3.2,0.8,4c0.6,0.6,1.3,0.8,2.1,0.8s1.5-0.3,2.1-0.8c0.8-0.8,0.8-1.7,0.8-4
				C53.5,69.8,53.5,69,52.7,68.2z"/>
			<path class="st1" d="M60.9,72.6h-3v5.1H57v-11h4.2c1.8,0,3.2,1,3.2,2.9c0,1.7-1,2.7-2.5,3l2.7,5.1h-1L60.9,72.6z M61.1,67.4h-3.2
				v4.4h3.2c1.4,0,2.4-0.7,2.4-2.2C63.5,68.1,62.5,67.4,61.1,67.4z"/>
			<path class="st1" d="M66.8,66.7h6.7v0.7h-5.8v4.3h5v0.7h-5v4.4h5.8v0.7h-6.7V66.7z"/>
			<path class="st1" d="M83.3,72.6h-3v5.1h-0.8v-11h4.2c1.8,0,3.2,1,3.2,2.9c0,1.7-1,2.7-2.5,3l2.7,5.1h-1L83.3,72.6z M83.5,67.4
				h-3.2v4.4h3.2c1.4,0,2.4-0.7,2.4-2.2C85.9,68.1,84.9,67.4,83.5,67.4z"/>
			<path class="st1" d="M89.2,66.7h6.7v0.7h-5.8v4.3h5v0.7h-5v4.4h5.8v0.7h-6.7V66.7z"/>
			<path class="st1" d="M100.9,77.8c-1.6,0-2.7-0.4-3.7-1.5l0.6-0.6c1,1,1.8,1.3,3.1,1.3c1.7,0,2.8-0.8,2.8-2.3
				c0-0.7-0.2-1.2-0.6-1.5c-0.4-0.3-0.7-0.5-1.6-0.6l-1.3-0.2c-0.8-0.1-1.5-0.4-2-0.8c-0.6-0.5-0.9-1.2-0.9-2c0-1.9,1.3-3,3.4-3
				c1.4,0,2.2,0.4,3.2,1.2l-0.5,0.5c-0.6-0.6-1.4-1-2.7-1c-1.6,0-2.5,0.9-2.5,2.3c0,0.6,0.2,1.1,0.6,1.4c0.4,0.3,1,0.6,1.6,0.7
				l1.2,0.2c1,0.1,1.5,0.3,2,0.7c0.6,0.5,1,1.3,1,2.1C104.6,76.6,103.2,77.8,100.9,77.8z"/>
			<path class="st1" d="M110.9,73h-3.2v4.7h-0.8v-11h4c1.9,0,3.3,1.1,3.3,3.2C114.3,71.9,112.8,73,110.9,73z M110.8,67.4h-3.1v4.8
				h3.1c1.5,0,2.6-0.8,2.6-2.4S112.4,67.4,110.8,67.4z"/>
			<path class="st1" d="M122.4,76.7c-0.7,0.7-1.7,1.1-2.7,1.1c-1.1,0-2-0.4-2.7-1.1c-1-1-1-2-1-4.5c0-2.5,0-3.5,1-4.5
				c0.7-0.7,1.7-1.1,2.7-1.1c1,0,2,0.4,2.7,1.1c1,1,1,2,1,4.5C123.4,74.7,123.4,75.7,122.4,76.7z M121.8,68.2
				c-0.6-0.6-1.3-0.8-2.1-0.8s-1.5,0.3-2.1,0.8c-0.8,0.8-0.8,1.7-0.8,4c0,2.3,0.1,3.2,0.8,4c0.6,0.6,1.3,0.8,2.1,0.8
				s1.5-0.3,2.1-0.8c0.8-0.8,0.8-1.7,0.8-4C122.6,69.8,122.5,69,121.8,68.2z"/>
			<path class="st1" d="M126.9,68.1v9.6h-0.8v-11h0.8l6.3,9.5v-9.5h0.8v11h-0.8L126.9,68.1z"/>
			<path class="st1" d="M139.9,77.8c-1.6,0-2.7-0.4-3.7-1.5l0.6-0.6c1,1,1.8,1.3,3.1,1.3c1.7,0,2.8-0.8,2.8-2.3
				c0-0.7-0.2-1.2-0.6-1.5c-0.4-0.3-0.7-0.5-1.6-0.6l-1.3-0.2c-0.8-0.1-1.5-0.4-2-0.8c-0.6-0.5-0.9-1.2-0.9-2c0-1.9,1.3-3,3.4-3
				c1.4,0,2.2,0.4,3.2,1.2l-0.5,0.5c-0.6-0.6-1.4-1-2.7-1c-1.6,0-2.5,0.9-2.5,2.3c0,0.6,0.2,1.1,0.6,1.4c0.4,0.3,1,0.6,1.6,0.7
				l1.2,0.2c1,0.1,1.5,0.3,2,0.7c0.6,0.5,1,1.3,1,2.1C143.7,76.6,142.2,77.8,139.9,77.8z"/>
			<path class="st1" d="M146,66.7h0.8v11H146V66.7z"/>
			<path class="st1" d="M154,77.7h-4.2v-11h4c1.8,0,3.2,1.1,3.2,2.9c0,1.2-0.6,2.1-1.7,2.5c1.2,0.4,1.9,1.4,1.9,2.7
				C157.3,76.7,156,77.7,154,77.7z M153.8,67.4h-3.1v4.3h3.1c1.3,0,2.4-0.6,2.4-2.1C156.3,68.1,155.2,67.4,153.8,67.4z M153.9,72.4
				h-3.2v4.5h3.2c1.5,0,2.5-0.8,2.5-2.3C156.4,73.3,155.4,72.4,153.9,72.4z"/>
			<path class="st1" d="M159.9,66.7h0.8v11h-0.8V66.7z"/>
			<path class="st1" d="M163.8,66.7h0.8v10.3h5.8v0.7h-6.7V66.7z"/>
			<path class="st1" d="M172.4,66.7h0.8v11h-0.8V66.7z"/>
			<path class="st1" d="M179.2,77.7h-0.8V67.4h-3.3v-0.7h7.4v0.7h-3.3V77.7z"/>
			<path class="st1" d="M186.8,77.7H186v-4.6l-3.2-6.4h0.9l2.8,5.6l2.7-5.6h0.9l-3.2,6.4V77.7z"/>
		</g>
	</g>
	<g>
		<g>
			<path class="st1" d="M50.7,46.9l-0.5,3.2h2v3.6h-2.6l-0.9,5.6h-4l0.9-5.6h-3.4l-0.9,5.6h-4l0.9-5.6h-2v-3.6h2.6l0.5-3.2h-2.1
				v-3.6h2.6l0.8-5.2h4l-0.8,5.2h3.4l0.8-5.2h4l-0.8,5.2h2v3.6H50.7z M43.2,46.9l-0.5,3.2h3.4l0.5-3.2H43.2z"/>
			<path class="st1" d="M55.9,59.3v-3.5l7.9-9.1c0.8-0.9,1.1-1.6,1.1-2.5c0-1.6-0.9-2.6-2.5-2.6c-1.3,0-2.6,0.6-2.6,2.7h-3.8
				c0-3.8,2.8-6.1,6.4-6.1c3.7,0,6.4,2.3,6.4,6.1c0,2-0.8,3.1-2.2,4.8l-5.9,6.8h8.1v3.5H55.9z"/>
		</g>
	</g>
</g>
</svg>
