<?xml version="1.0" encoding="utf-8"?>
<!-- Generator: Adobe Illustrator 22.0.0, SVG Export Plug-In . SVG Version: 6.00 Build 0)  -->
<svg version="1.1" id="Layer_1" xmlns="http://www.w3.org/2000/svg" xmlns:xlink="http://www.w3.org/1999/xlink" x="0px" y="0px"
	 viewBox="0 0 44.3 52" style="enable-background:new 0 0 44.3 52;" xml:space="preserve">
<style type="text/css">
	.st0{fill:#FFFFFF;stroke:#0093C0;stroke-width:0.5;stroke-linecap:round;stroke-linejoin:round;stroke-miterlimit:10;}
	.st1{fill:none;stroke:#0093C0;stroke-width:0.5;stroke-linecap:round;stroke-linejoin:round;stroke-miterlimit:10;}
</style>
<g>
	<g>
		<g>
			<path class="st0" d="M39.5,51.7h-7.2v-0.5c0-1.3,1.1-2.4,2.4-2.4h2.5c1.3,0,2.4,1.1,2.4,2.4V51.7z"/>
			<path class="st0" d="M35.9,41.6h-2.3v7c0,0.5,0.4,1,1,1h0.4c0.5,0,1-0.4,1-1V41.6z"/>
			<path class="st0" d="M23.6,51.7h7.2v-0.5c0-1.3-1.1-2.4-2.4-2.4H26c-1.3,0-2.4,1.1-2.4,2.4V51.7z"/>
			<path class="st0" d="M27.2,41.6h2.3v7c0,0.5-0.4,1-1,1h-0.4c-0.5,0-1-0.4-1-1V41.6z"/>
		</g>
		<g>
			<path class="st0" d="M38,20.5v23.6H25.2l1.4-12.3l0.1-1.3c0-0.3,0-0.7,0-1c0-0.5-1.7-0.5-1.8-1l-0.3-7.8c0-0.8,0.4-1.7,1.2-2.2
				l1.7-1c0.3,0.2,0.6,0.3,0.9,0.3h6.7C36.7,17.8,38,19,38,20.5z"/>
		</g>
		<polyline class="st1" points="38,20.5 38,32.6 35.1,32.6 35.1,23.4 		"/>
		<path class="st1" d="M28.6,17.8c0.1,1.5,1.4,2.8,3,2.8c1.6,0,2.9-1.2,3-2.8"/>
		<line class="st0" x1="44.1" y1="51.7" x2="0.2" y2="51.7"/>
		<polyline class="st0" points="24.7,21.3 24.7,32.6 27.5,32.6 27.5,23.4 		"/>
		<rect x="24.7" y="32.2" class="st0" width="2.8" height="2.7"/>
		<rect x="35.1" y="32.2" class="st0" width="2.8" height="2.7"/>
		<path class="st0" d="M14.2,13.3v1.8c0,0.9-0.7,1.6-1.6,1.6c-0.9,0-1.6-0.7-1.6-1.6v-1.8H14.2z"/>
		<path class="st0" d="M6.5,34.2h12.2V21.8v12.4h3.5l0-12.4c0-3.5-2.9-6.4-6.4-6.4H9.4c-3.5,0-6.4,2.9-6.4,6.4v12.4H6.5l0-12.4"/>
		<path class="st0" d="M15.9,13.3H4.4c-0.8,0-1.5,0.7-1.5,1.5v0.6c0,0.8,0.7,1.5,1.5,1.5h11.4c0.8,0,1.5-0.7,1.5-1.5v-0.6
			C17.3,13.9,16.7,13.3,15.9,13.3z"/>
		<g>
			<line class="st0" x1="18.7" y1="19.3" x2="18.7" y2="21.8"/>
			<line class="st0" x1="6.4" y1="19.3" x2="6.4" y2="21.8"/>
		</g>
		<g>
			<path class="st0" d="M20.7,51.7h-7.2v-0.5c0-1.3,1.1-2.4,2.4-2.4h2.5c1.3,0,2.4,1.1,2.4,2.4V51.7z"/>
			<path class="st0" d="M17.1,41.6h-2.3v7c0,0.5,0.4,1,1,1h0.4c0.5,0,1-0.4,1-1V41.6z"/>
			<path class="st0" d="M4.7,51.7H12v-0.5c0-1.3-1.1-2.4-2.4-2.4H7.1c-1.3,0-2.4,1.1-2.4,2.4V51.7z"/>
			<path class="st0" d="M8.4,41.6h2.3v7c0,0.5-0.4,1-1,1H9.3c-0.5,0-1-0.4-1-1V41.6z"/>
		</g>
		<polygon class="st0" points="6.5,34.2 18.7,34.2 18.8,46.3 6.5,46.3 		"/>
		<path class="st0" d="M16.8,5.6c0,2.4-2,4.4-4.4,4.4S8,8.1,8,5.6c0-0.1,0-0.2,0-0.4c0.1-1.5,1-2.8,2.2-3.5c0.3-0.2,0.6-0.3,0.9-0.4
			c0.4-0.1,0.8-0.2,1.3-0.2c1.8,0,3.3,1.1,4,2.6C16.7,4.4,16.8,5,16.8,5.6z"/>
		<g>
			<circle class="st0" cx="18" cy="8.6" r="1.1"/>
			<circle class="st0" cx="6.8" cy="8.6" r="1.1"/>
		</g>
		<g>
			<path class="st0" d="M7.2,7.4C7,7.8,6.8,8.2,6.8,8.6c0,3.1,2.5,5.6,5.6,5.6S18,11.7,18,8.6c0-0.4-0.1-0.7-0.4-1.1H7.2z"/>
		</g>
		<path class="st1" d="M5,7.4"/>
		<path class="st0" d="M18,3.8H6.9c-0.8,0-1.5,0.7-1.5,1.5v0.6c0,0.8,0.7,1.5,1.5,1.5H18c0.8,0,1.5-0.7,1.5-1.5V5.3
			C19.4,4.5,18.8,3.8,18,3.8z"/>
		<path class="st0" d="M16.9,0.2l-8.7,0c-0.8,0-1.5,0.7-1.5,1.5v0.6c0,0.8,0.7,1.5,1.5,1.5l8.7,0c0.8,0,1.5-0.7,1.5-1.5V1.7
			C18.4,0.9,17.7,0.2,16.9,0.2z"/>
		<rect x="18.8" y="34.2" class="st0" width="3.4" height="2.7"/>
		<rect x="2.9" y="34.2" class="st0" width="3.4" height="2.7"/>
		<line class="st1" x1="12.7" y1="39.4" x2="12.7" y2="46.3"/>
		<rect x="12.5" y="21.3" class="st1" width="3.4" height="3.5"/>
		<path class="st0" d="M23.5,19.8c0.1,1,1,1.7,2,1.7h6.3c0.5,0,0.9-0.4,0.9-0.9H33c0.2,0,0.4,0,0.6,0c2.7-0.4,4.3-3.2,3.5-5.8v0
			c-0.1-0.4-0.2-0.9-0.2-1.4l0-3.3c0-2.9-2.3-5.4-5.2-5.5C28,4.4,26.1,7,26.1,10.1c0,0,0,1.4,0,4c0,1.9-0.9,3.6-0.9,3.6
			c0,0-0.8,0.2-1.2,0.6C23.6,18.6,23.4,19.2,23.5,19.8z"/>
		<circle class="st0" cx="31.4" cy="11.2" r="3.2"/>
		<path class="st0" d="M27.3,37.2H16.1v-7.2c0-2.6,2.1-4.7,4.7-4.7h2c2.6,0,4.7,2.1,4.7,4.7V37.2z"/>
		<rect x="17.8" y="37.2" class="st0" width="7.7" height="12.3"/>
		<path class="st0" d="M20.4,23.2v1.4c0,0.7,0.6,1.3,1.3,1.3c0.7,0,1.3-0.6,1.3-1.3v-1.4H20.4z"/>
		<path class="st0" d="M26.1,19.1c0,2.4-2,4.4-4.4,4.4s-4.4-2-4.4-4.4c0-0.1,0-0.2,0-0.4c0.1-1.5,1-2.8,2.2-3.5
			c0.3-0.2,0.6-0.3,0.9-0.4c0.4-0.1,0.8-0.2,1.3-0.2c1.8,0,3.3,1.1,4,2.6C26,17.9,26.1,18.5,26.1,19.1z"/>
		<line class="st0" x1="21.7" y1="50.4" x2="21.7" y2="40.6"/>
		<line class="st0" x1="24.5" y1="37.2" x2="24.5" y2="29.9"/>
		<line class="st0" x1="18.8" y1="29.9" x2="18.8" y2="37.2"/>
		<rect x="24.5" y="36.8" class="st0" width="2.8" height="2.7"/>
		<rect x="16.1" y="36.8" class="st0" width="2.8" height="2.7"/>
		<line class="st0" x1="21.7" y1="39.6" x2="21.7" y2="46.3"/>
		<g>
			<rect x="16.3" y="49.1" class="st0" width="5.4" height="2.6"/>
			<rect x="21.8" y="49.1" class="st0" width="5.4" height="2.6"/>
		</g>
		<line class="st0" x1="17.3" y1="18.8" x2="29.1" y2="18.8"/>
	</g>
</g>
</svg>
