<?xml version="1.0" encoding="utf-8"?>
<!-- Generator: Adobe Illustrator 21.0.0, SVG Export Plug-In . SVG Version: 6.00 Build 0)  -->
<svg version="1.1" id="Layer_1" xmlns="http://www.w3.org/2000/svg" xmlns:xlink="http://www.w3.org/1999/xlink" x="0px" y="0px"
	 viewBox="0 0 352.8 397.2" style="enable-background:new 0 0 352.8 397.2;" xml:space="preserve">
<style type="text/css">
	.st0{fill:#F6A500;}
	.st1{fill:#FFFFFF;}
</style>
<rect class="st0" width="352.8" height="397.2"/>
<path class="st1" d="M154.2,281.1c0-0.1,0-0.2,0-0.3h0.1c0,0.1,0,0.2,0.1,0.4C154.4,281.2,154.3,281.1,154.2,281.1 M174.7,278.6
	l-0.1-0.5v1.2C174.7,279,174.7,278.8,174.7,278.6 M174.9,275.3c-0.1,0.1-0.1,0.2-0.2,0.4v1.8L174.9,275.3z M183.7,256.5l0.1,0.6
	l0.2-0.9C183.9,256.3,183.8,256.4,183.7,256.5 M177.2,272.1l0.8-0.5C177.7,271.7,177.4,271.8,177.2,272.1 M184.2,255.7l-0.5,0.9
	c0.1-0.1,0.2-0.2,0.3-0.3L184.2,255.7z M175.2,216.5L175.2,216.5c3.8,0,6.9-3.1,6.9-6.8c0-3.7-3-6.8-6.8-6.8h-0.1
	c-3.8,0-6.8,3.1-6.8,6.8C168.4,213.5,171.5,216.5,175.2,216.5 M198.6,222.6c7.4,0,13.3,5.9,13.3,13.2c0,0.7-0.1,1.4-0.2,2.3l-1,16.2
	c0,0.2,0,0.4,0,0.6v0c0,0.7-0.1,1.1-0.1,1.1c0,0.3-0.2,0.5-0.4,0.7c-0.4,1.1-1,2-1.9,2.8l-1.7,16.9c0,5.7-4.5,9.5-7.5,9.5
	c-0.9,0-1.7-0.2-2.4-0.6l2-11.8h2.2c0.1,0,0.3,0,0.4,0c1.6,0,2.9-1.3,2.9-2.9c0-0.1,0-0.2,0-0.3c0-0.3-0.1-0.6-0.2-0.8l0,0
	l-4.4-18.3c-0.5-3.6-3.6-6.3-7.3-6.3c-3.8,0-6.9,2.8-7.3,6.5l-1,4.3l-0.5,0.9l0.1,0.6l-3,12.9c-0.1,0.2-0.1,0.5-0.1,0.7
	c0,1.6,1.3,2.9,2.9,2.9c0.1,0,0.3,0,0.4,0h1.7l0.8,4.6c0,0.2,0,0.4,0.1,0.6l0.2,1.5c0,0.3-0.1,0.6-0.2,1c-0.5,3.7-3,6.5-6,6.5
	c-3.2,0-5.7-3.1-6-7.1c0-0.2-0.1-0.4-0.1-0.7c0-0.2,0-0.5,0.1-0.7c0-0.2,0-0.4,0-0.7l0-0.5l-0.1,0.5l0.1-1.1l0.2-2.1
	c-0.1,0.1-0.1,0.2-0.2,0.4v-7c1-0.8,1.6-1.9,1.8-3.3c0-0.2,0-0.3,0-0.5l0-0.6l0-0.6l0.1-0.9l0-0.8l0-0.4l0.1-0.9l0.1-0.9l0.1-1.4
	l0.1-1.8l0-0.5l0.1-0.8l0.2-2.9c0.1-0.6,0.2-1.1,0.2-1.7c0-5.2-4.2-9.5-9.5-9.5h-0.1c-5.3,0-9.5,4.3-9.5,9.5c0,0.6,0.1,1.1,0.2,1.7
	l0.2,2.9l0,0.8l0,0.5l0.1,1.8l0.1,1.4l0.1,0.9l0.1,0.9l0,0.4l0,0.8l0.1,0.9l0,0.6l0,0.6c0,0.2,0,0.3,0,0.5c0.1,1.3,0.8,2.5,1.8,3.3
	V282c-0.1,0-0.2,0-0.2,0c-0.4,1.7-2.3,4.6-5.6,4.6c-3.8,0-5.6-3.2-6.3-6.7c-0.1-0.1-0.1-0.2-0.2-0.3l-3.4-15.9h-0.1
	c-0.2,0.1-0.5,0.1-0.9,0.1c-0.3,0-0.6,0-0.9-0.1c-1.9-0.4-3.3-2.1-3.3-4.1c0-0.3,0-0.7,0.1-1l4.1-25.2v0c-0.1-0.5,0.3-1.8,0.4-2.4
	c1.3-6.7,4.2-9.6,9.9-9.6c3.1,0,5.9,1.4,7.8,3.5c2.2-4.1,6.6-6.9,11.6-6.9h0.1c6.5,0,11.8,4.6,13,10.7
	C189.7,225.1,193.9,222.6,198.6,222.6 M154.4,281.2c0-0.1-0.1-0.2-0.1-0.3h-0.1c0,0.1,0,0.2,0,0.3
	C154.3,281.1,154.4,281.2,154.4,281.2 M177.9,271.6c-0.2,0.1-0.5,0.3-0.8,0.5L177.9,271.6z M168,238.9c3.1,0,5.6-2.5,5.6-5.6
	c0-3.1-2.5-5.6-5.6-5.6h-0.1c-3.1,0-5.6,2.5-5.6,5.6C162.3,236.4,164.8,238.9,168,238.9L168,238.9 M192.4,243.3
	c3.2,0,5.8-2.6,5.8-5.8c0-3.2-2.6-5.8-5.8-5.8c-3.2,0-5.8,2.6-5.8,5.8C186.6,240.7,189.2,243.3,192.4,243.3L192.4,243.3
	 M154.8,219.9L154.8,219.9c3.5,0,6.3-2.8,6.3-6.2c0-3.4-2.8-6.2-6.2-6.2h-0.1c-3.4,0-6.2,2.8-6.2,6.2
	C148.6,217.1,151.4,219.9,154.8,219.9 M198.8,221.3L198.8,221.3c3.5,0,6.3-2.8,6.3-6.3c0-3.5-2.8-6.3-6.3-6.3h-0.1
	c-3.5,0-6.3,2.8-6.3,6.3C192.5,218.5,195.3,221.3,198.8,221.3 M204.7,353c1.5,0,2.7-1.2,2.7-2.7v-19l38.1-17.4
	c2.1-0.8,3.8-2.4,4.8-4.4l14.3-30.6l4.7-10.3c0.6-1.3,0-2.9-1.3-3.5c-1.9-0.9-4-1.3-6.1-1.3c-5.1,0-9.9,2.8-12.4,7.2
	c-0.2,0.2-0.4,0.5-0.5,0.7l-12.4,26.5l-22.5,3.6l3.9-3.4c4.6-4.1,5.1-11.2,1.1-15.9l-0.7-0.9c-0.4-0.6-1.1-1-1.9-1
	c-0.8-0.1-1.5,0.2-2,0.7l-35.2,31.3c-0.5,0.5-13.3,12.2-13.3,37.3c0,0.3,0,0.5,0.1,0.7l0.2,0.7c0.3,1.1,1.4,1.9,2.5,1.9H204.7
	 M171.4,347.6c0.6-21.3,11.4-31.3,11.5-31.4l33-29.3c1.3,2.4,0.8,5.4-1.3,7.3l-10.7,9.5c-0.9,0.8-1.1,2.1-0.6,3.1
	c0.5,1.1,1.7,1.7,2.8,1.5l32.9-5.2c0.9-0.1,1.6-0.7,2-1.5l12.5-26.8c0.1-0.2,0.3-0.4,0.4-0.6c1.5-3.2,4.7-5.2,8.2-5.2
	c0.4,0,0.8,0,1.3,0.1l-3.4,7.5l-14.3,30.6c-0.4,0.8-1,1.4-1.9,1.7c-0.1,0-0.1,0.1-0.2,0.1l-39.7,18.2c-1,0.4-1.5,1.4-1.5,2.4v18.1
	H171.4 M177.5,321.8c0.7,0,1.5-0.3,2-0.9c1-1.1,0.9-2.8-0.2-3.7L138.3,281c-0.6-0.5-1.3-0.7-2-0.6c-0.7,0.1-1.4,0.5-1.9,1l-0.7,0.9
	c-2,2.3-2.9,5.1-2.7,8.1c0.2,3,1.5,5.8,3.8,7.8c1.1,1,2.8,0.9,3.7-0.2c1-1.1,0.9-2.8-0.2-3.7c-1.2-1.1-1.9-2.5-2-4.1
	c-0.1-1.1,0.2-2.2,0.7-3.2l38.7,34.2C176.2,321.6,176.8,321.8,177.5,321.8 M169,353c1.5,0,2.7-1.2,2.7-2.6c0-1.5-1.2-2.7-2.7-2.7
	h-18.2v-18.1c0-1-0.6-2-1.6-2.4L109.5,309c-0.1,0-0.1-0.1-0.2-0.1c-0.8-0.3-1.5-0.9-1.9-1.7l-14.3-30.6l-3.4-7.6
	c3.8-0.5,7.7,1.4,9.5,5.1c0.1,0.2,0.2,0.4,0.4,0.6l12.5,26.8c0.4,0.8,1.1,1.4,2,1.5l32.9,5.2c1.2,0.2,2.3-0.4,2.8-1.5
	c0.5-1.1,0.2-2.3-0.6-3.1l-10.7-9.5c-1.1-1-2.8-0.9-3.7,0.2c-1,1.1-0.9,2.8,0.2,3.7l3.9,3.4l-22.5-3.6l-12.4-26.5
	c-0.1-0.3-0.3-0.5-0.5-0.7c-3.7-6.4-11.7-9-18.5-5.9c-1.3,0.6-1.9,2.2-1.3,3.5l4.7,10.3l14.3,30.6c1,2.1,2.7,3.6,4.8,4.4l38.1,17.4
	v19c0,1.5,1.2,2.6,2.6,2.6H169"/>
<g>
	<g>
		<g>
			<path class="st1" d="M54.8,108.8h-3.4L47.5,96l-3.9,12.8h-3.4l-5.6-21h4.3l3.3,13.3L46,87.7h3.1l3.8,13.3l3.3-13.3h4.3
				L54.8,108.8z"/>
			<path class="st1" d="M75,106.6c-1.5,1.5-3.3,2.3-5.7,2.3s-4.2-0.8-5.7-2.3c-2.1-2.1-2.1-4.8-2.1-8.4s-0.1-6.3,2.1-8.4
				c1.5-1.5,3.3-2.3,5.7-2.3s4.2,0.8,5.7,2.3c2.1,2.1,2.1,4.8,2.1,8.4S77.1,104.5,75,106.6z M71.9,92.3c-0.6-0.7-1.5-1.1-2.6-1.1
				s-2.1,0.4-2.7,1.1c-0.8,0.9-1,1.9-1,5.9s0.2,5,1,5.9c0.6,0.7,1.5,1.1,2.7,1.1s2-0.4,2.6-1.1c0.8-0.9,1-1.9,1-5.9
				S72.7,93.2,71.9,92.3z"/>
			<path class="st1" d="M91.8,108.8l-4.1-8.4h-3v8.4h-4.1v-21h8.2c4.3,0,6.8,2.9,6.8,6.4c0,3-1.8,4.8-3.8,5.5l4.7,9.1H91.8z
				 M88.6,91.4h-3.9V97h3.9c1.8,0,3-1.2,3-2.8C91.6,92.5,90.5,91.4,88.6,91.4z"/>
			<path class="st1" d="M111.6,108.8l-5.4-9.6l-2.7,3.2v6.3h-4.1v-21h4.1v9.2l7.4-9.2h5l-7,8.4l7.5,12.7H111.6z"/>
			<path class="st1" d="M118.5,108.8v-21h4.1v21H118.5z"/>
			<path class="st1" d="M139.3,108.8L131,95.9v12.9h-4.1v-21h3.7l8.3,12.9V87.7h4.1v21H139.3z"/>
			<path class="st1" d="M160.3,106.6c-1.6,1.7-3.6,2.4-5.9,2.4c-2.2,0-4.1-0.8-5.7-2.3c-0.9-0.9-1.5-2-1.7-3.2s-0.4-2.9-0.4-5.2
				s0.1-4,0.4-5.2c0.2-1.2,0.8-2.2,1.7-3.2c1.5-1.5,3.4-2.3,5.7-2.3c4.8,0,7.4,3.1,7.9,6.7h-4.1c-0.5-2-1.7-3.1-3.8-3.1
				c-1.1,0-2,0.4-2.6,1.1c-0.8,1-1,1.7-1,5.9c0,4.1,0.2,5,1,5.9c0.6,0.7,1.5,1.1,2.6,1.1c1.2,0,2.2-0.4,2.9-1.2
				c0.6-0.7,0.9-1.7,0.9-2.8v-0.8h-3.9v-3.4h7.9v3.1C162.3,103.2,161.7,105,160.3,106.6z"/>
			<path class="st1" d="M50.1,137.1c-1.4,1.4-3.4,2-5.6,2h-7.6v-21h7.6c2.2,0,4.2,0.6,5.6,2c2.4,2.4,2.1,5.3,2.1,8.4
				C52.2,131.6,52.4,134.7,50.1,137.1z M47.2,123c-0.7-0.9-1.7-1.3-3.1-1.3H41v13.7h3.1c1.4,0,2.4-0.4,3.1-1.3
				c0.8-0.9,0.9-2.5,0.9-5.6C48.1,125.3,48,123.9,47.2,123z"/>
			<path class="st1" d="M55.8,139.1v-21h4.1v21H55.8z"/>
			<path class="st1" d="M68.3,121.7v5.2h8.3v3.7h-8.3v8.5h-4.1v-21h13.9v3.7H68.3z"/>
			<path class="st1" d="M85.2,121.7v5.2h8.3v3.7h-8.3v8.5h-4.1v-21h13.9v3.7H85.2z"/>
			<path class="st1" d="M97.9,139.1v-21h13.9v3.7H102v4.9h8.3v3.7H102v5.1h9.7v3.7H97.9z"/>
			<path class="st1" d="M126.4,139.1l-4.1-8.4h-3v8.4h-4.1v-21h8.2c4.3,0,6.8,2.9,6.8,6.4c0,3-1.8,4.8-3.8,5.5l4.7,9.1H126.4z
				 M123.2,121.7h-3.9v5.6h3.9c1.8,0,3-1.2,3-2.8C126.1,122.8,125,121.7,123.2,121.7z"/>
			<path class="st1" d="M133.9,139.1v-21h13.9v3.7H138v4.9h8.3v3.7H138v5.1h9.7v3.7H133.9z"/>
			<path class="st1" d="M163.6,139.1l-8.3-12.9v12.9h-4.1v-21h3.7l8.3,12.9V118h4.1v21H163.6z"/>
			<path class="st1" d="M179.7,121.7v17.4h-4.1v-17.4h-5.5V118h15.1v3.7H179.7z"/>
			<path class="st1" d="M187.9,139.1v-21h4.1v17.4h9.5v3.7H187.9z"/>
			<path class="st1" d="M210,130.4v8.6h-4.1v-8.6l-6.3-12.4h4.5l3.9,8.5l3.9-8.5h4.5L210,130.4z"/>
			<path class="st1" d="M44.9,152v17.4h-4.1V152h-5.5v-3.7h15.1v3.7H44.9z"/>
			<path class="st1" d="M65.3,167.2c-1.5,1.5-3.3,2.3-5.7,2.3s-4.2-0.8-5.7-2.3c-2.1-2.1-2.1-4.8-2.1-8.4s-0.1-6.3,2.1-8.4
				c1.5-1.5,3.3-2.3,5.7-2.3s4.2,0.8,5.7,2.3c2.1,2.1,2.1,4.8,2.1,8.4S67.5,165.1,65.3,167.2z M62.3,152.9c-0.6-0.7-1.5-1.1-2.6-1.1
				s-2.1,0.4-2.7,1.1c-0.8,0.9-1,1.9-1,5.9s0.2,5,1,5.9c0.6,0.7,1.5,1.1,2.7,1.1s2-0.4,2.6-1.1c0.8-0.9,1-1.9,1-5.9
				S63.1,153.8,62.3,152.9z"/>
			<path class="st1" d="M77.3,169.4v-21h13.9v3.7h-9.7v4.9h8.3v3.7h-8.3v5.1h9.7v3.7H77.3z"/>
			<path class="st1" d="M107,169.4l-8.3-12.9v12.9h-4.1v-21h3.7l8.3,12.9v-12.9h4.1v21H107z"/>
			<path class="st1" d="M128.2,167.4c-1.4,1.4-3.4,2-5.6,2H115v-21h7.6c2.2,0,4.2,0.6,5.6,2c2.4,2.4,2.1,5.3,2.1,8.4
				S130.5,165,128.2,167.4z M125.3,153.3c-0.7-0.9-1.7-1.3-3.1-1.3h-3.1v13.7h3.1c1.4,0,2.4-0.4,3.1-1.3c0.8-0.9,0.9-2.5,0.9-5.6
				S126.1,154.2,125.3,153.3z"/>
			<path class="st1" d="M152.6,169.4l-8.3-12.9v12.9h-4.1v-21h3.7l8.3,12.9v-12.9h4.1v21H152.6z"/>
			<path class="st1" d="M160.6,169.4v-21h13.9v3.7h-9.7v4.9h8.3v3.7h-8.3v5.1h9.7v3.7H160.6z"/>
			<path class="st1" d="M177.9,169.4v-21h13.9v3.7H182v4.9h8.3v3.7H182v5.1h9.7v3.7H177.9z"/>
			<path class="st1" d="M208.3,167.4c-1.4,1.4-3.4,2-5.6,2h-7.6v-21h7.6c2.2,0,4.2,0.6,5.6,2c2.4,2.4,2.1,5.3,2.1,8.4
				S210.7,165,208.3,167.4z M205.4,153.3c-0.7-0.9-1.7-1.3-3.1-1.3h-3.1v13.7h3.1c1.4,0,2.4-0.4,3.1-1.3c0.8-0.9,0.9-2.5,0.9-5.6
				S206.2,154.2,205.4,153.3z"/>
		</g>
	</g>
	<g>
		<g>
			<path class="st1" d="M41,77.8c-1.1,0-2-0.4-2.7-1.1c-1-1-1-2-1-4.5c0-2.5,0-3.5,1-4.5c0.7-0.7,1.7-1.1,2.7-1.1
				c2,0,3.4,1.2,3.7,3.2h-0.8c-0.3-1.5-1.4-2.5-2.9-2.5c-0.8,0-1.5,0.3-2.1,0.8c-0.8,0.8-0.8,1.7-0.8,4c0,2.3,0.1,3.2,0.8,4
				c0.6,0.6,1.3,0.8,2.1,0.8c1.5,0,2.6-0.9,2.9-2.5h0.8C44.3,76.5,42.9,77.8,41,77.8z"/>
			<path class="st1" d="M53.3,76.7c-0.7,0.7-1.7,1.1-2.7,1.1c-1.1,0-2-0.4-2.7-1.1c-1-1-1-2-1-4.5c0-2.5,0-3.5,1-4.5
				c0.7-0.7,1.7-1.1,2.7-1.1c1,0,2,0.4,2.7,1.1c1,1,1,2,1,4.5C54.4,74.7,54.3,75.7,53.3,76.7z M52.7,68.2c-0.6-0.6-1.3-0.8-2.1-0.8
				s-1.5,0.3-2.1,0.8c-0.8,0.8-0.8,1.7-0.8,4c0,2.3,0.1,3.2,0.8,4c0.6,0.6,1.3,0.8,2.1,0.8s1.5-0.3,2.1-0.8c0.8-0.8,0.8-1.7,0.8-4
				C53.5,69.8,53.5,69,52.7,68.2z"/>
			<path class="st1" d="M60.9,72.6h-3v5.1H57v-11h4.2c1.8,0,3.2,1,3.2,3c0,1.7-1,2.7-2.5,3l2.7,5.1h-1L60.9,72.6z M61.1,67.4h-3.2
				v4.4h3.2c1.4,0,2.4-0.7,2.4-2.2C63.5,68.1,62.5,67.4,61.1,67.4z"/>
			<path class="st1" d="M66.8,66.7h6.7v0.7h-5.8v4.3h5v0.7h-5v4.4h5.8v0.7h-6.7V66.7z"/>
			<path class="st1" d="M83.3,72.6h-3v5.1h-0.8v-11h4.2c1.8,0,3.2,1,3.2,3c0,1.7-1,2.7-2.5,3l2.7,5.1h-1L83.3,72.6z M83.5,67.4h-3.2
				v4.4h3.2c1.4,0,2.4-0.7,2.4-2.2C85.9,68.1,84.9,67.4,83.5,67.4z"/>
			<path class="st1" d="M89.2,66.7h6.7v0.7h-5.8v4.3h5v0.7h-5v4.4h5.8v0.7h-6.7V66.7z"/>
			<path class="st1" d="M100.9,77.8c-1.6,0-2.7-0.4-3.7-1.5l0.6-0.6c1,1,1.8,1.3,3.1,1.3c1.7,0,2.8-0.8,2.8-2.3
				c0-0.7-0.2-1.2-0.6-1.5c-0.4-0.3-0.7-0.5-1.6-0.6l-1.3-0.2c-0.8-0.1-1.5-0.4-2-0.8c-0.6-0.5-0.9-1.2-0.9-2c0-1.9,1.3-3,3.4-3
				c1.4,0,2.2,0.4,3.2,1.2l-0.5,0.5c-0.6-0.6-1.4-1-2.7-1c-1.6,0-2.5,0.9-2.5,2.3c0,0.6,0.2,1.1,0.6,1.4c0.4,0.3,1,0.6,1.6,0.7
				l1.2,0.2c1,0.1,1.5,0.3,2,0.7c0.6,0.5,1,1.3,1,2.1C104.6,76.6,103.2,77.8,100.9,77.8z"/>
			<path class="st1" d="M110.9,73h-3.2v4.7h-0.8v-11h4c1.9,0,3.3,1.1,3.3,3.2C114.3,71.9,112.8,73,110.9,73z M110.8,67.4h-3.1v4.8
				h3.1c1.5,0,2.6-0.8,2.6-2.4S112.4,67.4,110.8,67.4z"/>
			<path class="st1" d="M122.4,76.7c-0.7,0.7-1.7,1.1-2.7,1.1c-1.1,0-2-0.4-2.7-1.1c-1-1-1-2-1-4.5c0-2.5,0-3.5,1-4.5
				c0.7-0.7,1.7-1.1,2.7-1.1c1,0,2,0.4,2.7,1.1c1,1,1,2,1,4.5C123.4,74.7,123.4,75.7,122.4,76.7z M121.8,68.2
				c-0.6-0.6-1.3-0.8-2.1-0.8s-1.5,0.3-2.1,0.8c-0.8,0.8-0.8,1.7-0.8,4c0,2.3,0.1,3.2,0.8,4c0.6,0.6,1.3,0.8,2.1,0.8
				s1.5-0.3,2.1-0.8c0.8-0.8,0.8-1.7,0.8-4C122.6,69.8,122.5,69,121.8,68.2z"/>
			<path class="st1" d="M126.9,68.1v9.6h-0.8v-11h0.8l6.3,9.5v-9.5h0.8v11h-0.8L126.9,68.1z"/>
			<path class="st1" d="M139.9,77.8c-1.6,0-2.7-0.4-3.7-1.5l0.6-0.6c1,1,1.8,1.3,3.1,1.3c1.7,0,2.8-0.8,2.8-2.3
				c0-0.7-0.2-1.2-0.6-1.5c-0.4-0.3-0.7-0.5-1.6-0.6l-1.3-0.2c-0.8-0.1-1.5-0.4-2-0.8c-0.6-0.5-0.9-1.2-0.9-2c0-1.9,1.3-3,3.4-3
				c1.4,0,2.2,0.4,3.2,1.2l-0.5,0.5c-0.6-0.6-1.4-1-2.7-1c-1.6,0-2.5,0.9-2.5,2.3c0,0.6,0.2,1.1,0.6,1.4c0.4,0.3,1,0.6,1.6,0.7
				l1.2,0.2c1,0.1,1.5,0.3,2,0.7c0.6,0.5,1,1.3,1,2.1C143.7,76.6,142.2,77.8,139.9,77.8z"/>
			<path class="st1" d="M146,66.7h0.8v11H146V66.7z"/>
			<path class="st1" d="M154,77.7h-4.2v-11h4c1.8,0,3.2,1.1,3.2,2.9c0,1.2-0.6,2.1-1.7,2.5c1.2,0.4,1.9,1.4,1.9,2.7
				C157.3,76.7,156,77.7,154,77.7z M153.8,67.4h-3.1v4.3h3.1c1.3,0,2.4-0.6,2.4-2.1C156.3,68.1,155.2,67.4,153.8,67.4z M153.9,72.4
				h-3.2v4.5h3.2c1.5,0,2.5-0.8,2.5-2.3C156.4,73.3,155.4,72.4,153.9,72.4z"/>
			<path class="st1" d="M159.9,66.7h0.8v11h-0.8V66.7z"/>
			<path class="st1" d="M163.8,66.7h0.8v10.3h5.8v0.7h-6.7V66.7z"/>
			<path class="st1" d="M172.4,66.7h0.8v11h-0.8V66.7z"/>
			<path class="st1" d="M179.2,77.7h-0.8V67.4h-3.3v-0.7h7.4v0.7h-3.3V77.7z"/>
			<path class="st1" d="M186.8,77.7H186v-4.6l-3.2-6.4h0.9l2.8,5.6l2.7-5.6h0.9l-3.2,6.4V77.7z"/>
		</g>
	</g>
	<g>
		<g>
			<path class="st1" d="M50.7,46.9l-0.5,3.2h2v3.6h-2.6l-0.9,5.6h-4l0.9-5.6h-3.4l-0.9,5.6h-4l0.9-5.6h-2v-3.6h2.6l0.5-3.2h-2.1
				v-3.6h2.6l0.8-5.2h4l-0.8,5.2h3.4l0.8-5.2h4l-0.8,5.2h2v3.6H50.7z M43.2,46.9l-0.5,3.2h3.4l0.5-3.2H43.2z"/>
			<path class="st1" d="M67.3,56.3v3h-3.7v-3H55v-3.6l7.2-14.4h4.2l-7.2,14.4h4.4v-3.9h3.7v3.9h1.9v3.6H67.3z"/>
		</g>
	</g>
</g>
</svg>
