<?xml version="1.0" encoding="utf-8"?>
<!-- Generator: Adobe Illustrator 22.0.0, SVG Export Plug-In . SVG Version: 6.00 Build 0)  -->
<svg version="1.1" id="Layer_1" xmlns="http://www.w3.org/2000/svg" xmlns:xlink="http://www.w3.org/1999/xlink" x="0px" y="0px"
	 viewBox="0 0 500 500" style="enable-background:new 0 0 500 500;" xml:space="preserve">
<style type="text/css">
	.st0{fill:none;stroke:#3A8DDE;stroke-width:2;stroke-linecap:round;stroke-linejoin:round;stroke-miterlimit:10;}
</style>
<g>
	<path class="st0" d="M257.8,194.8v7.5c0,4.9-3.9,8.8-8.8,8.8c-4.8,0-8.8-3.9-8.8-8.8v-7.1"/>
	<path class="st0" d="M240.2,203.3h-8.8c-19.4,0-35.2,15.8-35.2,35.2v68.2h19.4l-0.2-68.2"/>
	<path class="st0" d="M215.6,306.7h67v-68.2v68.2H302l-0.2-68.2c0-19.4-15.8-35.2-35.2-35.2h-8.8"/>
	<g>
		<line class="st0" x1="282.6" y1="224.9" x2="282.6" y2="238.5"/>
		<line class="st0" x1="215.4" y1="224.9" x2="215.4" y2="238.5"/>
	</g>
	<g>
		<path class="st0" d="M293.5,403.1h-39.7v-14.2c0-0.9,0.7-1.6,1.6-1.6H281c6.8,0,12.4,5.6,12.4,12.4v3.4H293.5z"/>
		<path class="st0" d="M273.7,373.3h-12.9v12.8c0,0.5,0.4,0.9,0.9,0.9h11.1c0.5,0,0.9-0.4,0.9-0.9V373.3z"/>
		<path class="st0" d="M206.1,403.1h39.7v-14.2c0-0.9-0.7-1.6-1.6-1.6h-25.6c-6.8,0-12.4,5.6-12.4,12.4L206.1,403.1L206.1,403.1z"/>
		<path class="st0" d="M225.9,373.3h12.9v13c0,0.4-0.3,0.7-0.7,0.7h-11.5c-0.4,0-0.7-0.3-0.7-0.7V373.3z"/>
	</g>
	<polygon class="st0" points="215.6,306.7 282.6,306.7 283.4,373.3 215.6,373.3 	"/>
	<g>
		<path class="st0" d="M279,172.3c3.4,0,6.2-2.8,6.2-6.2s-2.8-6.2-6.2-6.2"/>
		<path class="st0" d="M217.4,159.9c-3.4,0-6.2,2.8-6.2,6.2s2.8,6.2,6.2,6.2"/>
	</g>
	<path class="st0" d="M290.7,321.5h3.9c4,0,7.3-3.3,7.3-7.3v-7.5h-18.6v7.5C283.4,318.3,286.7,321.5,290.7,321.5z"/>
	<path class="st0" d="M203.5,321.5h3.9c4,0,7.3-3.3,7.3-7.3v-7.5h-18.6v7.5C196.2,318.3,199.4,321.5,203.5,321.5z"/>
	<line class="st0" x1="249.5" y1="335.3" x2="249.5" y2="373.3"/>
	<line class="st0" x1="263.3" y1="211.5" x2="263.3" y2="306.7"/>
	<line class="st0" x1="235.7" y1="211.5" x2="235.7" y2="306.7"/>
	<line class="st0" x1="240" y1="233.7" x2="231.4" y2="233.7"/>
	<line class="st0" x1="240" y1="248.3" x2="231.4" y2="248.3"/>
	<line class="st0" x1="267.6" y1="233.7" x2="259" y2="233.7"/>
	<line class="st0" x1="267.6" y1="248.3" x2="259" y2="248.3"/>
	<ellipse transform="matrix(0.1602 -0.9871 0.9871 0.1602 45.3612 383.9157)" class="st0" cx="248.3" cy="165.3" rx="31" ry="31"/>
	<polyline class="st0" points="218.2,159.9 248.1,147.2 279,159.9 	"/>
</g>
</svg>
